<?xml version="1.0" standalone="no"?>
<!DOCTYPE svg PUBLIC "-//W3C//DTD SVG 20010904//EN"
 "http://www.w3.org/TR/2001/REC-SVG-20010904/DTD/svg10.dtd">
<svg version="1.0" xmlns="http://www.w3.org/2000/svg"
 width="1417.000000pt" height="1417.000000pt" viewBox="0 0 1417.000000 1417.000000"
 preserveAspectRatio="xMidYMid meet">

<g transform="translate(0.000000,1417.000000) scale(0.100000,-0.100000)"
fill="#000000" stroke="none">
<path d="M0 9900 l0 -4270 7085 0 7085 0 0 4270 0 4270 -7085 0 -7085 0 0
-4270z m7285 3876 c225 -76 397 -263 451 -491 25 -110 15 -276 -24 -381 -38
-103 -89 -184 -163 -256 -343 -335 -926 -213 -1102 232 -75 190 -59 417 42
593 88 155 263 281 445 323 96 22 253 13 351 -20z m-97 -1465 c9 -6 33 -13 53
-16 79 -12 206 -123 245 -211 29 -68 32 -78 45 -146 9 -50 10 -74 1 -92 -9
-20 -8 -27 7 -40 10 -9 20 -16 24 -16 26 0 164 -126 202 -185 28 -42 55 -104
55 -124 0 -9 4 -21 8 -26 5 -6 14 -35 21 -66 11 -51 15 -57 41 -63 41 -8 60
-50 60 -129 0 -58 -3 -68 -29 -96 -16 -17 -38 -31 -49 -31 -14 0 -28 -16 -48
-57 -30 -62 -116 -151 -200 -208 -108 -72 -280 -141 -401 -160 -24 -4 -46 -11
-49 -16 -3 -5 -6 -113 -6 -240 -1 -250 -1 -249 54 -249 15 0 30 -4 33 -10 3
-5 13 -10 22 -10 25 0 142 -60 178 -91 44 -39 65 -103 65 -201 0 -145 -69
-243 -223 -317 -47 -22 -89 -41 -95 -41 -30 0 -34 -32 -33 -247 l0 -217 38
-14 c59 -20 344 -5 359 19 3 5 15 9 27 9 44 0 126 39 255 121 29 19 28 45 -3
53 -14 4 -25 10 -25 14 0 7 74 62 84 62 3 0 44 27 90 60 136 97 234 219 331
414 l29 59 9 -33 c12 -47 2 -230 -18 -335 -12 -62 -84 -206 -145 -290 -47 -66
-192 -212 -197 -200 -14 37 -21 40 -50 19 -15 -11 -35 -23 -43 -27 -8 -4 -35
-21 -60 -37 -69 -45 -387 -201 -440 -215 -55 -15 -249 -118 -283 -150 -47 -44
-67 -44 -106 0 -17 19 -32 35 -35 35 -2 0 -30 15 -63 33 -55 31 -181 87 -195
87 -3 0 -40 16 -81 35 -41 19 -82 35 -90 35 -9 0 -19 5 -22 10 -3 6 -15 10
-26 10 -18 0 -19 -9 -19 -204 l0 -204 -36 -27 -36 -28 -32 32 -31 31 -2 240
c-1 133 -5 245 -8 250 -4 6 -25 20 -47 33 -74 40 -83 46 -95 63 -14 19 -43 12
-43 -11 0 -8 -5 -15 -11 -15 -13 0 -159 146 -159 160 0 5 -11 20 -25 34 -14
14 -25 32 -25 39 0 8 -6 17 -13 20 -12 4 -86 143 -108 202 -12 33 -29 109 -29
130 0 11 -2 54 -4 95 -3 41 -1 100 3 130 l7 55 23 -50 c92 -196 232 -358 409
-472 56 -36 102 -69 102 -73 0 -4 -11 -13 -25 -20 -14 -7 -25 -18 -25 -24 1
-15 79 -68 90 -61 4 3 23 31 41 63 36 64 139 176 211 228 60 44 233 134 258
134 10 0 22 5 25 10 3 6 17 10 30 10 13 0 27 5 30 10 3 6 17 10 31 10 l24 0 0
224 c0 161 -3 227 -12 232 -6 4 -30 11 -52 16 -133 29 -219 55 -276 83 -109
54 -140 107 -140 239 0 91 26 154 88 219 45 47 202 140 202 120 0 -3 6 -1 13
4 12 10 58 24 135 43 l42 11 0 139 c0 93 -4 141 -11 146 -20 12 -229 8 -242
-5 -18 -18 -86 -13 -114 9 -34 26 -99 27 -121 1 -10 -10 -34 -22 -54 -25 -31
-6 -40 -3 -60 18 -20 22 -35 26 -111 32 -79 6 -90 9 -106 33 -10 14 -19 33
-20 41 0 8 -4 31 -7 50 -6 41 17 105 43 118 10 5 50 7 89 5 64 -3 72 -1 94 22
27 29 84 34 116 10 30 -22 116 -20 137 5 24 28 97 28 123 -1 18 -20 25 -21
109 -15 140 11 136 9 133 75 -3 47 -6 56 -23 59 -72 12 -208 113 -257 192 -81
131 -77 324 8 454 57 86 184 176 250 176 12 0 26 5 29 10 8 13 140 13 163 1z
m-98 -3830 c0 -6 -4 -13 -10 -16 -5 -3 -10 1 -10 9 0 9 5 16 10 16 6 0 10 -4
10 -9z"/>
<path d="M7024 13651 c-38 -23 -58 -70 -50 -113 7 -37 49 -88 71 -88 8 0 15
-9 15 -20 0 -19 -6 -21 -52 -20 -29 1 -68 0 -85 -3 -18 -2 -44 -4 -57 -5 -43
-3 -44 -62 -2 -62 12 0 27 -5 34 -12 8 -8 15 -8 24 -1 7 6 40 8 76 5 l63 -4
-3 -40 c-3 -37 -6 -41 -43 -54 -75 -25 -110 -99 -66 -138 11 -10 39 -23 63
-30 l43 -13 3 -67 c2 -55 0 -66 -13 -66 -29 0 -91 -38 -129 -80 -34 -38 -62
-47 -50 -16 3 8 -3 17 -13 20 -24 8 -87 72 -108 111 l-17 30 6 -59 c6 -71 57
-156 96 -161 3 0 15 -6 28 -13 19 -11 22 -20 22 -82 0 -54 3 -70 14 -70 18 0
24 23 22 73 -2 21 0 40 4 42 3 2 41 -14 84 -35 78 -39 79 -39 105 -21 14 9 51
28 81 40 30 13 71 33 90 44 19 12 41 22 49 22 33 0 101 132 101 195 -1 24 -1
24 -15 5 -55 -77 -71 -95 -100 -111 -18 -10 -31 -23 -28 -30 8 -22 -70 -54
-132 -54 l-55 0 0 64 c0 61 1 64 30 76 87 36 86 146 -1 165 -29 6 -29 8 -29
76 0 59 3 69 18 69 62 1 192 105 192 155 0 14 -4 25 -9 25 -4 0 -16 20 -26 45
-9 25 -30 56 -46 67 -16 12 -29 30 -29 40 0 37 -29 87 -59 102 -40 21 -79 20
-117 -3z m108 -34 c36 -29 43 -77 12 -77 -14 0 -14 -3 -4 -15 11 -13 10 -18
-6 -30 -26 -20 -34 -18 -34 5 0 13 -7 20 -20 20 -13 0 -20 -7 -20 -20 0 -30
-18 -24 -40 13 -25 39 -19 73 16 105 32 28 62 28 96 -1z m80 -134 c20 -23 41
-64 36 -69 -3 -2 -15 -4 -29 -4 -13 1 -45 0 -71 0 -37 -1 -48 3 -48 15 0 8 10
19 23 24 12 5 31 18 41 30 23 26 29 26 48 4z m18 -168 c0 -13 -60 -46 -107
-60 -21 -6 -23 -3 -23 36 l0 42 39 -6 c21 -2 44 -1 51 3 17 10 40 2 40 -15z
m-170 -165 c0 -65 -6 -70 -54 -48 -61 27 -35 105 37 107 14 1 17 -8 17 -59z
m86 -114 c28 -34 18 -77 -22 -95 -24 -11 -24 -10 -24 50 0 58 1 60 23 53 12
-3 22 -7 23 -8z m-86 -206 l0 -60 -64 0 c-36 0 -68 5 -72 11 -12 20 91 108
129 109 4 0 7 -27 7 -60z"/>
<path d="M7042 12174 c-29 -7 -77 -29 -108 -50 -46 -32 -61 -50 -90 -110 -45
-94 -46 -152 -4 -238 36 -73 52 -93 105 -129 64 -43 75 -38 75 36 0 36 5 68
12 75 7 7 33 12 59 12 67 0 81 -17 76 -92 -3 -42 0 -61 8 -65 20 -7 96 35 134
75 l35 35 -27 21 c-49 39 -30 102 33 112 45 7 55 24 44 81 -29 162 -194 273
-352 237z"/>
<path d="M7445 11631 c-40 -60 -121 -118 -201 -143 -38 -11 -72 -25 -75 -31
-9 -14 2 -91 14 -99 6 -3 42 -9 79 -13 63 -7 71 -5 89 14 27 29 98 29 124 1
14 -15 31 -20 71 -20 29 0 54 5 56 11 2 6 25 13 51 16 26 3 47 11 47 17 0 6
-10 39 -22 74 -16 47 -36 77 -82 125 -33 34 -59 65 -58 70 1 4 -4 7 -10 7 -7
0 -23 3 -35 6 -17 5 -27 -2 -48 -35z"/>
<path d="M7471 11046 c-35 -26 -68 -27 -121 -1 -25 12 -180 9 -180 -4 0 -3 -1
-62 -1 -131 l-1 -125 53 2 c60 3 79 9 219 68 71 31 129 67 178 113 32 30 44
66 18 56 -7 -3 -23 6 -34 20 -27 35 -85 36 -131 2z"/>
<path d="M6920 10600 c-30 -10 -63 -19 -72 -19 -31 -2 -105 -65 -127 -109 -38
-77 -20 -181 40 -228 39 -30 228 -82 249 -69 6 4 10 88 10 226 l0 219 -22 -1
c-13 0 -48 -9 -78 -19z"/>
<path d="M7170 10003 c-6 -110 0 -387 8 -395 18 -18 142 51 179 101 30 38 33
49 33 108 0 76 -20 117 -72 148 -61 36 -147 58 -148 38z"/>
<path d="M6985 9423 c-69 -14 -246 -107 -304 -160 -13 -13 -28 -23 -32 -23
-10 0 -91 -105 -119 -154 -33 -60 -32 -61 110 -87 103 -18 261 -22 320 -6 l55
14 3 203 c1 112 -1 206 -5 210 -5 4 -17 5 -28 3z"/>
<path d="M0 3810 l0 -160 7085 0 7085 0 0 160 0 160 -7085 0 -7085 0 0 -160z"/>
<path d="M0 1580 l0 -1580 7085 0 7085 0 0 1580 0 1580 -7085 0 -7085 0 0
-1580z"/>
</g>
</svg>
