<?xml version="1.0" standalone="no"?>
<!DOCTYPE svg PUBLIC "-//W3C//DTD SVG 20010904//EN"
 "http://www.w3.org/TR/2001/REC-SVG-20010904/DTD/svg10.dtd">
<svg version="1.0" xmlns="http://www.w3.org/2000/svg"
 width="1417.000000pt" height="1417.000000pt" viewBox="0 0 1417.000000 1417.000000"
 preserveAspectRatio="xMidYMid meet">

<g transform="translate(0.000000,1417.000000) scale(0.100000,-0.100000)"
fill="#000000" stroke="none">
<path d="M0 7085 l0 -7085 7085 0 7085 0 0 7085 0 7085 -7085 0 -7085 0 0
-7085z m7285 6691 c225 -76 397 -263 451 -491 25 -110 15 -276 -24 -381 -38
-103 -89 -184 -163 -256 -343 -335 -926 -213 -1102 232 -75 190 -59 417 42
593 88 155 263 281 445 323 96 22 253 13 351 -20z"/>
<path d="M7024 13651 c-38 -23 -58 -70 -50 -113 7 -37 49 -88 71 -88 8 0 15
-9 15 -20 0 -19 -6 -21 -52 -20 -29 1 -68 0 -85 -3 -18 -2 -44 -4 -57 -5 -43
-3 -44 -62 -2 -62 12 0 27 -5 34 -12 8 -8 15 -8 24 -1 7 6 40 8 76 5 l63 -4
-3 -40 c-3 -37 -6 -41 -43 -54 -75 -25 -110 -99 -66 -138 11 -10 39 -23 63
-30 l43 -13 3 -67 c2 -55 0 -66 -13 -66 -29 0 -91 -38 -129 -80 -34 -38 -62
-47 -50 -16 3 8 -3 17 -13 20 -24 8 -87 72 -108 111 l-17 30 6 -59 c6 -71 57
-156 96 -161 3 0 15 -6 28 -13 19 -11 22 -20 22 -82 0 -54 3 -70 14 -70 18 0
24 23 22 73 -2 21 0 40 4 42 3 2 41 -14 84 -35 78 -39 79 -39 105 -21 14 9 51
28 81 40 30 13 71 33 90 44 19 12 41 22 49 22 33 0 101 132 101 195 -1 24 -1
24 -15 5 -55 -77 -71 -95 -100 -111 -18 -10 -31 -23 -28 -30 8 -22 -70 -54
-132 -54 l-55 0 0 64 c0 61 1 64 30 76 87 36 86 146 -1 165 -29 6 -29 8 -29
76 0 59 3 69 18 69 62 1 192 105 192 155 0 14 -4 25 -9 25 -4 0 -16 20 -26 45
-9 25 -30 56 -46 67 -16 12 -29 30 -29 40 0 37 -29 87 -59 102 -40 21 -79 20
-117 -3z m108 -34 c36 -29 43 -77 12 -77 -14 0 -14 -3 -4 -15 11 -13 10 -18
-6 -30 -26 -20 -34 -18 -34 5 0 13 -7 20 -20 20 -13 0 -20 -7 -20 -20 0 -30
-18 -24 -40 13 -25 39 -19 73 16 105 32 28 62 28 96 -1z m80 -134 c20 -23 41
-64 36 -69 -3 -2 -15 -4 -29 -4 -13 1 -45 0 -71 0 -37 -1 -48 3 -48 15 0 8 10
19 23 24 12 5 31 18 41 30 23 26 29 26 48 4z m18 -168 c0 -13 -60 -46 -107
-60 -21 -6 -23 -3 -23 36 l0 42 39 -6 c21 -2 44 -1 51 3 17 10 40 2 40 -15z
m-170 -165 c0 -65 -6 -70 -54 -48 -61 27 -35 105 37 107 14 1 17 -8 17 -59z
m86 -114 c28 -34 18 -77 -22 -95 -24 -11 -24 -10 -24 50 0 58 1 60 23 53 12
-3 22 -7 23 -8z m-86 -206 l0 -60 -64 0 c-36 0 -68 5 -72 11 -12 20 91 108
129 109 4 0 7 -27 7 -60z"/>
</g>
</svg>
