<?xml version="1.0" standalone="no"?>
<!DOCTYPE svg PUBLIC "-//W3C//DTD SVG 20010904//EN"
 "http://www.w3.org/TR/2001/REC-SVG-20010904/DTD/svg10.dtd">
<svg version="1.0" xmlns="http://www.w3.org/2000/svg"
 width="1417.000000pt" height="1417.000000pt" viewBox="0 0 1417.000000 1417.000000"
 preserveAspectRatio="xMidYMid meet">

<g transform="translate(0.000000,1417.000000) scale(0.100000,-0.100000)"
fill="#000000" stroke="none">
<path d="M0 7085 l0 -7085 7085 0 7085 0 -2 197 -3 196 -45 15 c-25 8 -47 18
-50 23 -3 4 -18 11 -33 14 -15 4 -27 11 -27 15 0 5 -13 11 -30 15 -16 4 -30
10 -30 15 0 5 -13 11 -30 15 -16 4 -30 10 -30 15 0 5 -13 11 -30 15 -16 4 -30
10 -30 15 0 5 -13 11 -30 15 -16 4 -30 10 -30 15 0 5 -13 11 -30 15 -16 4 -30
10 -30 15 0 5 -13 11 -30 15 -16 4 -30 10 -30 15 0 5 -13 11 -30 15 -16 4 -30
10 -30 15 0 5 -13 11 -30 15 -16 4 -30 10 -30 15 0 5 -13 11 -30 15 -16 4 -30
10 -30 15 0 5 -13 11 -30 15 -16 4 -30 10 -30 15 0 4 -11 11 -25 14 -14 4 -25
10 -25 15 0 5 -13 12 -30 16 -16 4 -30 10 -30 15 0 5 -13 11 -30 15 -16 4 -30
10 -30 15 0 5 -13 11 -30 15 -16 4 -30 10 -30 15 0 5 -13 11 -30 15 -16 4 -30
10 -30 15 0 5 -13 11 -30 15 -16 4 -30 10 -30 15 0 5 -13 11 -30 15 -16 4 -30
10 -30 15 0 5 -13 11 -30 15 -16 4 -30 10 -30 15 0 5 -13 11 -30 15 -16 4 -30
10 -30 15 0 5 -13 11 -30 15 -16 4 -30 10 -30 15 0 5 -13 11 -30 15 -16 4 -30
10 -30 15 0 5 -13 11 -30 15 -16 4 -30 10 -30 15 0 5 -13 11 -30 15 -16 4 -30
10 -30 15 0 5 -13 11 -30 15 -16 4 -30 10 -30 15 0 5 -13 11 -30 15 -16 4 -30
10 -30 15 0 5 -13 11 -30 15 -16 4 -30 10 -30 15 0 5 -13 11 -30 15 -16 4 -30
10 -30 15 0 5 -13 11 -30 15 -16 4 -30 10 -30 15 0 5 -13 11 -30 15 -16 4 -30
10 -30 15 0 4 -11 11 -25 14 -14 4 -25 10 -25 15 0 5 -13 12 -30 16 -16 4 -30
10 -30 15 0 5 -13 11 -30 15 -16 4 -30 10 -30 14 0 5 -20 14 -45 21 -25 7 -45
16 -45 21 0 4 -13 10 -30 14 -16 4 -30 10 -30 15 0 5 -13 11 -30 15 -16 4 -30
10 -30 15 0 5 -13 11 -30 15 -16 4 -30 10 -30 15 0 5 -13 11 -30 15 -16 4 -30
10 -30 15 0 5 -13 11 -30 15 -16 4 -30 10 -30 15 0 5 -13 11 -30 15 -16 4 -30
10 -30 15 0 5 -13 11 -30 15 -16 4 -30 10 -30 15 0 5 -13 11 -30 15 -16 4 -30
10 -30 15 0 5 -13 11 -30 15 -16 4 -30 10 -30 15 0 5 -13 11 -30 15 -16 4 -30
10 -30 15 0 5 -13 11 -30 15 -16 4 -30 10 -30 15 0 5 -13 11 -30 15 -16 4 -30
10 -30 15 0 5 -13 11 -30 15 -16 4 -30 10 -30 15 0 5 -13 11 -30 15 -16 4 -30
10 -30 15 0 4 -11 11 -25 14 -14 4 -25 10 -25 15 0 5 -13 12 -30 16 -16 4 -30
10 -30 15 0 5 -13 11 -30 15 -16 4 -30 10 -30 15 0 5 -13 11 -30 15 -16 4 -30
10 -30 15 0 5 -13 11 -30 15 -16 4 -30 10 -30 15 0 5 -13 11 -30 15 -16 4 -30
10 -30 15 0 5 -13 11 -30 15 -16 4 -30 10 -30 15 0 5 -13 11 -30 15 -16 4 -30
10 -30 15 0 4 -12 11 -26 14 -57 15 -54 -32 -54 841 l0 806 23 -7 c12 -4 24
-10 27 -14 3 -4 16 -11 30 -15 13 -4 30 -14 38 -21 7 -8 20 -14 28 -14 8 0 14
-4 14 -9 0 -5 14 -12 30 -16 17 -4 30 -10 30 -15 0 -5 14 -11 30 -15 17 -4 30
-10 30 -15 0 -5 14 -11 30 -15 17 -4 30 -10 30 -15 0 -5 14 -11 30 -15 17 -4
30 -10 30 -15 0 -5 14 -11 30 -15 17 -4 30 -11 30 -16 0 -5 11 -11 25 -15 14
-3 25 -10 25 -14 0 -4 20 -13 45 -20 25 -7 45 -16 45 -21 0 -4 14 -10 30 -14
17 -4 30 -10 30 -15 0 -5 14 -11 30 -15 17 -4 30 -10 30 -15 0 -5 14 -11 30
-15 17 -4 30 -10 30 -15 0 -4 11 -11 25 -14 14 -4 25 -10 25 -15 0 -5 14 -12
30 -16 17 -4 30 -10 30 -15 0 -5 14 -11 30 -15 17 -4 30 -10 30 -15 0 -5 14
-11 30 -15 17 -4 30 -10 30 -15 0 -5 14 -11 30 -15 17 -4 30 -10 30 -15 0 -5
14 -11 30 -15 17 -4 30 -10 30 -15 0 -4 11 -11 25 -14 14 -4 25 -10 25 -15 0
-5 14 -12 30 -16 17 -4 30 -10 30 -15 0 -5 14 -11 30 -15 17 -4 30 -10 30 -15
0 -5 14 -11 30 -15 17 -4 30 -10 30 -15 0 -5 14 -11 30 -15 17 -4 30 -10 30
-15 0 -5 14 -11 30 -15 17 -4 30 -10 30 -15 0 -4 11 -11 25 -14 14 -4 25 -10
25 -15 0 -5 14 -12 30 -16 17 -4 30 -10 30 -15 0 -5 14 -11 30 -15 17 -4 30
-10 30 -15 0 -5 14 -11 30 -15 17 -4 30 -10 30 -15 0 -5 14 -11 30 -15 17 -4
30 -10 30 -15 0 -5 14 -11 30 -15 17 -4 30 -10 30 -15 0 -4 11 -11 25 -14 14
-4 25 -10 25 -15 0 -5 14 -12 30 -16 17 -4 30 -10 30 -15 0 -5 14 -11 30 -15
17 -4 30 -10 30 -15 0 -5 14 -11 30 -15 17 -4 30 -10 30 -15 0 -5 14 -11 30
-15 17 -4 30 -10 30 -15 0 -5 14 -11 30 -15 17 -4 30 -10 30 -15 0 -5 14 -11
30 -15 17 -4 30 -11 30 -16 0 -5 11 -11 25 -15 14 -3 25 -10 25 -14 0 -5 14
-11 30 -15 17 -4 30 -10 30 -15 0 -5 14 -11 30 -15 17 -4 30 -10 30 -15 0 -5
14 -11 30 -15 17 -4 30 -10 30 -15 0 -5 14 -11 30 -15 17 -4 30 -10 30 -15 0
-5 14 -11 30 -15 17 -4 30 -11 30 -15 0 -5 18 -15 40 -21 22 -7 40 -16 40 -20
0 -4 14 -10 30 -14 17 -4 30 -10 30 -15 0 -5 14 -11 30 -15 17 -4 30 -10 30
-15 0 -5 14 -11 30 -15 17 -4 30 -10 30 -15 0 -5 14 -11 30 -15 17 -4 30 -10
30 -15 0 -4 11 -11 25 -14 14 -4 25 -10 25 -15 0 -5 14 -12 30 -16 17 -4 30
-10 30 -15 0 -5 14 -11 30 -15 16 -4 30 -10 30 -15 0 -5 14 -11 30 -15 17 -4
30 -10 30 -15 0 -5 14 -11 30 -15 17 -4 30 -10 30 -15 0 -5 14 -11 30 -15 17
-4 30 -10 30 -15 0 -4 11 -11 25 -14 14 -4 25 -10 25 -15 0 -5 14 -12 30 -16
17 -4 30 -10 30 -15 0 -5 14 -11 30 -15 17 -4 30 -10 30 -15 0 -4 12 -11 27
-15 15 -3 30 -10 33 -14 3 -5 15 -11 28 -15 l22 -7 0 501 c0 493 0 502 -20
507 -11 3 -20 9 -20 13 0 5 -13 11 -30 15 -16 4 -30 10 -30 15 0 5 -13 11 -30
15 -16 4 -30 10 -30 15 0 5 -13 11 -30 15 -16 4 -30 10 -30 15 0 5 -13 11 -30
15 -16 4 -30 10 -30 15 0 5 -13 11 -30 15 -16 4 -30 10 -30 15 0 5 -13 11 -30
15 -16 4 -30 10 -30 15 0 5 -13 11 -30 15 -16 4 -30 10 -30 15 0 5 -13 11 -30
15 -16 4 -30 10 -30 15 0 5 -13 11 -30 15 -16 4 -30 10 -30 15 0 5 -14 11 -30
15 -16 4 -30 10 -30 15 0 5 -13 11 -30 15 -16 4 -30 10 -30 15 0 5 -13 11 -30
15 -16 4 -30 10 -30 15 0 4 -11 11 -25 14 -14 4 -25 10 -25 15 0 5 -13 12 -30
16 -16 4 -30 10 -30 15 0 5 -13 11 -30 15 -16 4 -30 10 -30 15 0 5 -13 11 -30
15 -16 4 -30 10 -30 15 0 5 -13 11 -30 15 -16 4 -30 10 -30 14 0 5 -20 14 -45
21 -25 7 -45 16 -45 21 0 4 -13 10 -30 14 -16 4 -30 10 -30 15 0 5 -13 11 -30
15 -16 4 -30 10 -30 15 0 5 -13 11 -30 15 -16 4 -30 10 -30 15 0 5 -13 11 -30
15 -16 4 -30 10 -30 15 0 5 -13 11 -30 15 -16 4 -30 10 -30 15 0 5 -13 11 -30
15 -16 4 -30 10 -30 15 0 5 -13 11 -30 15 -16 4 -30 10 -30 15 0 5 -14 11 -30
15 -17 4 -30 10 -30 15 0 5 -13 11 -30 15 -16 4 -30 10 -30 15 0 5 -14 11 -30
15 -16 4 -30 10 -30 15 0 5 -13 11 -30 15 -16 4 -30 10 -30 15 0 5 -13 11 -30
15 -16 4 -30 10 -30 15 0 5 -13 11 -30 15 -16 4 -30 11 -30 16 0 5 -11 11 -25
15 -14 3 -25 10 -25 14 0 5 -13 11 -30 15 -16 4 -30 10 -30 15 0 5 -13 11 -30
15 -16 4 -30 10 -30 15 0 5 -13 11 -30 15 -16 4 -30 10 -30 15 0 5 -13 11 -30
15 -16 4 -30 10 -30 15 0 5 -13 11 -30 15 -16 4 -30 10 -30 15 0 5 -13 11 -30
15 -16 4 -30 10 -30 15 0 5 -13 11 -30 15 -16 4 -30 10 -30 15 0 5 -13 11 -30
15 -16 4 -30 10 -30 15 0 5 -13 11 -30 15 -16 4 -30 10 -30 15 0 5 -13 11 -30
15 -16 4 -30 10 -30 15 0 5 -13 11 -30 15 -16 4 -30 10 -30 15 0 5 -13 11 -30
15 -16 4 -30 10 -30 15 0 5 -13 11 -30 15 -16 4 -30 10 -30 15 0 5 -13 11 -30
15 -16 4 -30 10 -30 15 0 5 -13 11 -30 15 -16 4 -30 10 -30 15 0 5 -13 11 -30
15 -16 4 -30 10 -30 15 0 5 -13 11 -30 15 -16 4 -30 10 -30 15 0 4 -11 11 -25
14 -14 4 -25 10 -25 15 0 5 -13 12 -30 16 -16 4 -30 10 -30 14 0 5 -20 14 -45
21 -25 7 -45 16 -45 21 0 4 -13 10 -30 14 -16 4 -30 10 -30 15 0 5 -13 11 -30
15 -16 4 -30 10 -30 15 0 5 -13 11 -30 15 -16 4 -30 10 -30 15 0 5 -13 11 -30
15 -16 4 -30 10 -30 15 0 5 -13 11 -30 15 -16 4 -30 10 -30 15 0 4 -11 11 -25
14 l-25 6 0 816 0 815 23 -7 c12 -4 24 -10 27 -14 3 -4 16 -11 30 -15 13 -4
30 -14 38 -21 7 -8 20 -14 28 -14 8 0 14 -4 14 -9 0 -5 14 -12 30 -16 17 -4
30 -10 30 -15 0 -5 14 -11 30 -15 17 -4 30 -10 30 -15 0 -5 14 -11 30 -15 17
-4 30 -10 30 -15 0 -5 14 -11 30 -15 17 -4 30 -10 30 -15 0 -5 14 -11 30 -15
17 -4 30 -11 30 -16 0 -5 11 -11 25 -15 14 -3 25 -10 25 -14 0 -5 14 -11 30
-15 17 -4 30 -10 30 -15 0 -5 14 -11 30 -15 17 -4 30 -10 30 -15 0 -5 14 -11
30 -15 17 -4 30 -10 30 -15 0 -5 14 -11 30 -15 17 -4 30 -10 30 -15 0 -5 14
-11 30 -15 17 -4 30 -11 30 -16 0 -5 11 -11 25 -15 14 -3 25 -10 25 -14 0 -5
14 -11 30 -15 17 -4 30 -10 30 -15 0 -5 14 -11 30 -15 17 -4 30 -10 30 -15 0
-5 14 -11 30 -15 17 -4 30 -10 30 -15 0 -5 14 -11 30 -15 17 -4 30 -10 30 -15
0 -5 14 -11 30 -15 17 -4 30 -11 30 -16 0 -5 11 -11 25 -15 14 -3 25 -10 25
-14 0 -5 14 -11 30 -15 17 -4 30 -10 30 -15 0 -5 14 -11 30 -15 17 -4 30 -10
30 -15 0 -5 14 -11 30 -15 17 -4 30 -10 30 -15 0 -5 14 -11 30 -15 17 -4 30
-10 30 -15 0 -5 14 -11 30 -15 17 -4 30 -11 30 -16 0 -5 11 -11 25 -15 14 -3
25 -10 25 -14 0 -4 20 -13 45 -20 25 -7 45 -16 45 -21 0 -4 14 -10 30 -14 17
-4 30 -10 30 -15 0 -5 14 -11 30 -15 17 -4 30 -10 30 -15 0 -5 14 -11 30 -15
17 -4 30 -10 30 -15 0 -4 11 -11 25 -14 14 -4 25 -10 25 -15 0 -5 14 -12 30
-16 17 -4 30 -10 30 -15 0 -5 14 -11 30 -15 17 -4 30 -10 30 -15 0 -5 14 -11
30 -15 17 -4 30 -10 30 -15 0 -5 14 -11 30 -15 17 -4 30 -10 30 -15 0 -5 14
-11 30 -15 17 -4 30 -10 30 -15 0 -5 14 -11 30 -15 17 -4 30 -11 30 -16 0 -5
11 -11 25 -15 14 -3 25 -10 25 -14 0 -5 14 -11 30 -15 17 -4 30 -10 30 -15 0
-5 14 -11 30 -15 17 -4 30 -10 30 -15 0 -5 14 -11 30 -15 17 -4 30 -10 30 -15
0 -5 14 -11 30 -15 17 -4 30 -10 30 -15 0 -5 14 -11 30 -15 17 -4 30 -11 30
-16 0 -5 11 -11 25 -15 14 -3 25 -10 25 -14 0 -5 14 -11 30 -15 17 -4 30 -10
30 -15 0 -5 14 -11 30 -15 17 -4 30 -10 30 -15 0 -5 14 -11 30 -15 17 -4 30
-10 30 -15 0 -5 14 -11 30 -15 17 -4 30 -10 30 -15 0 -5 14 -11 30 -15 17 -4
30 -11 30 -16 0 -5 11 -11 25 -15 14 -3 25 -10 25 -14 0 -5 14 -11 30 -15 17
-4 30 -10 30 -15 0 -5 14 -11 30 -15 17 -4 30 -10 30 -15 0 -5 14 -11 30 -15
17 -4 30 -10 30 -15 0 -5 14 -11 30 -15 17 -4 30 -10 30 -15 0 -5 14 -11 30
-15 17 -4 30 -11 30 -16 0 -5 11 -11 25 -15 14 -3 25 -10 25 -14 0 -5 14 -11
30 -15 17 -4 30 -10 30 -15 0 -5 14 -11 30 -15 17 -4 30 -10 30 -15 0 -5 14
-11 30 -15 17 -4 30 -11 30 -16 0 -5 5 -9 10 -9 7 0 10 1607 10 4800 l0 4800
-7085 0 -7085 0 0 -7085z m7285 6691 c225 -76 397 -263 451 -491 25 -110 15
-276 -24 -381 -38 -103 -89 -184 -163 -256 -343 -335 -926 -213 -1102 232 -75
190 -59 417 42 593 88 155 263 281 445 323 96 22 253 13 351 -20z m-50 -1536
c84 -21 198 -117 230 -195 10 -22 22 -49 27 -59 5 -10 11 -58 13 -105 l3 -86
49 -31 c62 -40 154 -138 183 -194 26 -52 38 -85 54 -160 7 -35 17 -55 26 -56
8 -1 21 -2 28 -3 22 -2 45 -71 40 -123 -6 -58 -30 -97 -66 -104 -21 -5 -33
-20 -55 -64 -36 -75 -149 -174 -264 -230 -91 -45 -249 -100 -286 -100 -45 0
-47 -12 -47 -232 0 -236 -10 -210 90 -239 68 -19 152 -64 181 -96 62 -67 77
-192 35 -285 -38 -85 -84 -130 -183 -177 -48 -23 -95 -46 -103 -50 -12 -7 -15
-43 -18 -210 l-2 -201 27 -11 c34 -14 316 -7 335 8 7 6 28 13 46 16 64 13 230
105 240 134 2 7 -8 17 -22 23 -30 11 -34 25 -10 34 48 18 197 128 253 185 73
76 120 144 176 254 47 93 54 87 54 -48 0 -165 -23 -250 -101 -387 -46 -80 -94
-140 -190 -240 -30 -31 -48 -36 -48 -13 0 8 -5 15 -11 15 -12 0 -124 -64 -149
-86 -16 -14 -184 -98 -265 -133 -27 -12 -58 -26 -67 -31 -10 -6 -24 -10 -31
-10 -24 0 -232 -108 -258 -134 -14 -14 -37 -30 -50 -35 -20 -8 -29 -4 -54 22
-37 40 -119 87 -220 128 -11 5 -47 19 -80 32 -33 14 -85 36 -116 50 -31 14
-60 23 -63 20 -3 -4 -6 -86 -6 -183 0 -186 -1 -191 -49 -223 -23 -16 -26 -15
-50 11 l-26 27 -3 222 -3 222 -50 35 c-27 20 -53 36 -58 36 -5 0 -14 7 -21 15
-18 21 -41 19 -47 -5 -3 -11 -6 -20 -7 -20 -6 0 -126 122 -126 128 0 4 -16 25
-35 47 -19 22 -35 46 -35 53 0 6 -4 12 -9 12 -12 0 -89 156 -103 207 -20 74
-30 218 -21 284 l9 64 18 -40 c11 -22 43 -81 73 -131 67 -114 201 -247 316
-314 42 -25 77 -48 77 -52 0 -4 -9 -12 -20 -18 -11 -6 -20 -17 -20 -25 0 -15
55 -55 75 -55 6 0 24 25 40 56 41 76 180 207 278 263 43 24 122 59 175 77 l97
34 3 196 c1 127 -1 201 -8 209 -6 7 -25 15 -43 18 -30 5 -46 9 -153 36 -22 6
-54 17 -70 26 -16 8 -34 15 -40 15 -21 0 -95 73 -109 107 -8 20 -15 66 -15
105 0 173 128 290 385 351 l50 12 3 129 c2 97 -1 131 -10 138 -7 4 -56 8 -109
8 -74 0 -99 -4 -109 -15 -18 -22 -76 -19 -100 5 -25 25 -97 28 -114 5 -6 -9
-28 -18 -49 -22 -30 -5 -42 -1 -61 16 -17 16 -40 22 -99 27 -86 8 -95 15 -114
91 -8 31 -8 52 1 75 19 57 22 58 105 58 65 0 81 3 96 20 20 22 98 29 110 10
10 -17 112 -12 119 5 4 11 20 15 56 15 36 0 52 -4 56 -15 5 -12 23 -15 83 -14
42 1 90 4 106 8 28 6 30 10 33 54 3 44 1 48 -25 58 -98 36 -202 119 -238 190
-74 143 -55 328 46 443 45 51 152 116 192 116 14 0 29 5 32 11 9 13 119 7 190
-11z m-139 -3497 c-10 -10 -19 5 -10 18 6 11 8 11 12 0 2 -7 1 -15 -2 -18z
m45 -575 c22 -6 39 -14 39 -18 0 -5 11 -11 25 -14 14 -4 25 -10 25 -15 0 -5
14 -12 30 -16 17 -4 30 -10 30 -15 0 -5 14 -11 30 -15 17 -4 30 -10 30 -15 0
-5 14 -11 30 -15 17 -4 30 -10 30 -15 0 -5 14 -11 30 -15 17 -4 30 -10 30 -15
0 -5 14 -11 30 -15 17 -4 30 -10 30 -15 0 -4 11 -11 25 -14 14 -4 25 -10 25
-15 0 -5 14 -12 30 -16 17 -4 30 -10 30 -15 0 -5 14 -11 30 -15 17 -4 30 -10
30 -15 0 -5 14 -11 30 -15 17 -4 30 -10 30 -15 0 -5 14 -11 30 -15 17 -4 30
-10 30 -15 0 -5 14 -11 30 -15 17 -4 30 -10 30 -15 0 -4 11 -11 25 -14 14 -4
25 -10 25 -15 0 -5 14 -12 30 -16 17 -4 30 -10 30 -15 0 -5 14 -11 30 -15 17
-4 30 -10 30 -15 0 -5 14 -11 30 -15 17 -4 30 -10 30 -14 0 -5 20 -14 45 -21
25 -7 45 -16 45 -21 0 -4 14 -10 30 -14 17 -4 30 -11 30 -16 0 -5 11 -11 25
-15 14 -3 25 -10 25 -14 0 -5 14 -11 30 -15 17 -4 30 -10 30 -15 0 -5 14 -11
30 -15 17 -4 30 -10 30 -15 0 -5 14 -11 30 -15 17 -4 30 -10 30 -15 0 -5 14
-11 30 -15 17 -4 30 -10 30 -15 0 -5 14 -11 30 -15 17 -4 30 -11 30 -16 0 -5
11 -11 25 -15 14 -3 25 -10 25 -14 0 -5 14 -11 30 -15 17 -4 30 -10 30 -15 0
-5 14 -11 30 -15 17 -4 30 -10 30 -15 0 -5 14 -11 30 -15 17 -4 30 -10 30 -15
0 -5 14 -11 30 -15 17 -4 30 -10 30 -15 0 -5 14 -11 30 -15 17 -4 30 -11 30
-16 0 -5 11 -11 25 -15 14 -3 25 -10 25 -14 0 -5 14 -11 30 -15 17 -4 30 -10
30 -15 0 -5 14 -11 30 -15 17 -4 30 -10 30 -15 0 -5 14 -11 30 -15 17 -4 30
-10 30 -15 0 -4 11 -11 25 -14 l25 -6 0 -821 0 -820 -22 7 c-13 4 -25 10 -28
15 -3 4 -18 11 -33 14 -15 4 -27 11 -27 15 0 5 -13 11 -30 15 -16 4 -30 10
-30 15 0 5 -13 11 -30 15 -16 4 -30 10 -30 14 0 5 -20 14 -45 21 -25 7 -45 16
-45 20 0 4 -11 11 -25 14 -14 4 -25 10 -25 15 0 5 -13 12 -30 16 -16 4 -30 10
-30 15 0 5 -13 11 -30 15 -16 4 -30 10 -30 15 0 5 -13 11 -30 15 -16 4 -30 10
-30 15 0 5 -13 11 -30 15 -16 4 -30 10 -30 15 0 5 -13 11 -30 15 -16 4 -30 10
-30 15 0 5 -13 11 -30 15 -16 4 -30 10 -30 15 0 5 -13 11 -30 15 -16 4 -30 10
-30 15 0 5 -13 11 -30 15 -16 4 -30 10 -30 15 0 5 -13 11 -30 15 -16 4 -30 10
-30 15 0 5 -13 11 -30 15 -16 4 -30 10 -30 15 0 5 -13 11 -30 15 -16 4 -30 10
-30 15 0 5 -13 11 -30 15 -16 4 -30 10 -30 15 0 5 -13 11 -30 15 -16 4 -30 10
-30 15 0 5 -13 11 -30 15 -16 4 -30 10 -30 15 0 5 -13 11 -30 15 -16 4 -30 10
-30 15 0 5 -13 11 -30 15 -16 4 -30 10 -30 15 0 5 -13 11 -30 15 -16 4 -30 10
-30 15 0 5 -13 11 -30 15 -16 4 -30 11 -30 16 0 5 -11 11 -25 15 -14 3 -25 10
-25 14 0 5 -13 11 -30 15 -16 4 -30 10 -30 15 0 5 -13 11 -30 15 -16 4 -30 10
-30 15 0 5 -13 11 -30 15 -16 4 -30 10 -30 15 0 5 -13 11 -30 15 -16 4 -30 10
-30 15 0 5 -13 11 -30 15 -16 4 -30 10 -30 15 0 5 -13 11 -30 15 -16 4 -30 10
-30 15 0 5 -13 11 -30 15 -16 4 -30 10 -30 15 0 5 -13 11 -30 15 -16 4 -30 10
-30 15 0 5 -13 11 -30 15 -16 4 -30 10 -30 15 0 4 -12 11 -27 15 -15 3 -31 12
-35 18 -9 15 -87 15 -96 0 -4 -6 -20 -15 -35 -18 -15 -4 -27 -11 -27 -15 0 -5
-13 -11 -30 -15 -16 -4 -30 -10 -30 -15 0 -5 -13 -11 -30 -15 -16 -4 -30 -10
-30 -15 0 -5 -13 -11 -30 -15 -16 -4 -30 -10 -30 -15 0 -5 -13 -11 -30 -15
-16 -4 -30 -10 -30 -15 0 -5 -13 -11 -30 -15 -16 -4 -30 -10 -30 -15 0 -5 -13
-11 -30 -15 -16 -4 -30 -10 -30 -15 0 -5 -13 -11 -30 -15 -16 -4 -30 -10 -30
-15 0 -5 -13 -11 -30 -15 -16 -4 -30 -10 -30 -15 0 -5 -13 -11 -30 -15 -16 -4
-30 -10 -30 -15 0 -4 -11 -11 -25 -14 -14 -4 -25 -10 -25 -15 0 -5 -13 -12
-30 -16 -16 -4 -30 -10 -30 -15 0 -5 -13 -11 -30 -15 -16 -4 -30 -10 -30 -15
0 -5 -13 -11 -30 -15 -16 -4 -30 -10 -30 -15 0 -5 -13 -11 -30 -15 -16 -4 -30
-10 -30 -15 0 -5 -13 -11 -30 -15 -16 -4 -30 -10 -30 -15 0 -5 -13 -11 -30
-15 -16 -4 -30 -10 -30 -15 0 -5 -13 -11 -30 -15 -16 -4 -30 -10 -30 -15 0 -5
-13 -11 -30 -15 -16 -4 -30 -10 -30 -15 0 -5 -13 -11 -30 -15 -16 -4 -30 -10
-30 -15 0 -5 -13 -11 -30 -15 -16 -4 -30 -10 -30 -15 0 -5 -13 -11 -30 -15
-16 -4 -30 -10 -30 -15 0 -5 -13 -11 -30 -15 -16 -4 -30 -10 -30 -15 0 -5 -13
-11 -30 -15 -16 -4 -30 -10 -30 -15 0 -5 -13 -11 -30 -15 -16 -4 -30 -10 -30
-15 0 -5 -13 -11 -30 -15 -16 -4 -30 -10 -30 -15 0 -5 -13 -11 -30 -15 -16 -4
-30 -10 -30 -15 0 -5 -13 -11 -30 -15 -16 -4 -30 -10 -30 -15 0 -5 -13 -11
-30 -15 -16 -4 -30 -11 -30 -16 0 -5 -11 -11 -25 -15 -14 -3 -25 -10 -25 -14
0 -4 -20 -13 -45 -20 -25 -7 -45 -16 -45 -21 0 -4 -13 -10 -30 -14 -16 -4 -30
-10 -30 -15 0 -5 -13 -11 -30 -15 -16 -4 -30 -10 -30 -15 0 -4 -12 -11 -27
-15 -15 -3 -31 -12 -35 -18 -4 -7 -8 357 -8 808 0 451 4 825 8 832 4 6 20 15
35 18 15 4 27 11 27 15 0 5 14 11 30 15 17 4 30 10 30 15 0 5 14 11 30 15 17
4 30 10 30 15 0 4 11 11 25 14 14 4 25 10 25 15 0 5 14 12 30 16 17 4 30 10
30 15 0 5 14 11 30 15 17 4 30 10 30 15 0 5 14 11 30 15 17 4 30 10 30 15 0 5
14 11 30 15 17 4 30 10 30 15 0 5 14 11 30 15 17 4 30 10 30 15 0 4 11 11 25
14 14 4 25 10 25 15 0 5 14 12 30 16 17 4 30 10 30 15 0 5 14 11 30 15 17 4
30 10 30 15 0 5 14 11 30 15 17 4 30 10 30 15 0 5 14 11 30 15 17 4 30 10 30
15 0 5 14 11 30 15 17 4 30 10 30 15 0 4 11 11 25 14 14 4 25 10 25 15 0 5 14
12 30 16 17 4 30 10 30 14 0 5 20 14 45 21 25 7 45 16 45 21 0 4 14 10 30 14
17 4 30 10 30 15 0 5 14 11 30 15 17 4 30 10 30 15 0 5 14 11 30 15 17 4 30
11 30 16 0 5 11 11 25 15 14 3 25 10 25 14 0 5 14 11 30 15 17 4 30 10 30 15
0 5 14 11 30 15 17 4 30 10 30 15 0 5 14 11 30 15 17 4 30 10 30 15 0 5 14 11
30 15 17 4 30 10 30 15 0 5 14 11 30 15 17 4 30 11 30 16 0 5 11 11 25 15 14
3 25 10 25 14 0 5 14 11 30 15 17 4 30 10 30 15 0 5 14 11 30 15 17 4 30 10
30 15 0 5 14 11 30 15 17 4 30 10 30 15 0 5 14 11 30 15 17 4 30 10 30 15 0 5
14 11 30 15 17 4 30 11 30 16 0 5 11 11 25 15 14 3 25 10 25 14 0 8 55 27 84
29 10 1 36 -4 57 -11z m-3516 -3365 c-3 -14 -16 -24 -35 -28 -16 -4 -30 -10
-30 -15 0 -5 -13 -11 -30 -15 -16 -4 -30 -10 -30 -15 0 -5 -13 -11 -30 -15
-16 -4 -30 -10 -30 -15 0 -5 -13 -11 -30 -15 -16 -4 -30 -10 -30 -15 0 -5 -13
-11 -30 -15 -16 -4 -30 -10 -30 -15 0 -5 -13 -11 -30 -15 -16 -4 -30 -10 -30
-15 0 -5 -13 -11 -30 -15 -16 -4 -30 -10 -30 -14 0 -5 -20 -14 -45 -21 -25 -7
-45 -16 -45 -21 0 -4 -13 -10 -30 -14 -16 -4 -30 -11 -30 -16 0 -5 -11 -11
-25 -15 -14 -3 -25 -10 -25 -14 0 -5 -13 -11 -30 -15 -16 -4 -30 -10 -30 -15
0 -5 -13 -11 -30 -15 -16 -4 -30 -10 -30 -15 0 -5 -13 -11 -30 -15 -16 -4 -30
-10 -30 -15 0 -5 -13 -11 -30 -15 -16 -4 -30 -10 -30 -15 0 -5 -13 -11 -30
-15 -16 -4 -30 -10 -30 -15 0 -5 -13 -11 -30 -15 -16 -4 -30 -10 -30 -15 0 -5
-13 -11 -30 -15 -16 -4 -30 -10 -30 -15 0 -5 -13 -11 -30 -15 -16 -4 -30 -10
-30 -15 0 -5 -13 -11 -30 -15 -16 -4 -30 -10 -30 -15 0 -5 -13 -11 -30 -15
-16 -4 -30 -10 -30 -15 0 -5 -13 -11 -30 -15 -17 -4 -30 -10 -30 -15 0 -5 -13
-11 -30 -15 -17 -4 -30 -10 -30 -15 0 -5 -13 -11 -30 -15 -16 -4 -30 -10 -30
-15 0 -5 -13 -11 -30 -15 -17 -4 -30 -10 -30 -15 0 -5 -13 -11 -30 -15 -16 -4
-30 -10 -30 -15 0 -5 -13 -11 -30 -15 -17 -4 -30 -10 -30 -15 0 -5 -14 -11
-30 -15 -17 -4 -30 -10 -30 -15 0 -4 -11 -11 -25 -14 -14 -4 -25 -10 -25 -15
0 -5 -13 -12 -30 -16 -16 -4 -30 -10 -30 -15 0 -5 -13 -11 -30 -15 -17 -4 -30
-10 -30 -15 0 -5 -14 -11 -30 -15 -17 -4 -30 -10 -30 -15 0 -5 -13 -11 -30
-15 -16 -4 -30 -10 -30 -15 0 -5 -13 -11 -30 -15 -16 -4 -30 -10 -30 -15 0 -5
-13 -11 -30 -15 -16 -4 -30 -10 -30 -15 0 -5 -14 -11 -30 -15 -17 -4 -30 -10
-30 -15 0 -5 -14 -11 -30 -15 -17 -4 -30 -10 -30 -15 0 -5 -14 -11 -30 -15
-17 -4 -30 -10 -30 -15 0 -5 -14 -11 -30 -15 -16 -4 -30 -10 -30 -15 0 -5 -13
-11 -30 -15 -16 -4 -30 -10 -30 -15 0 -5 -13 -11 -30 -15 -17 -4 -30 -10 -30
-15 0 -5 -14 -11 -30 -15 -17 -4 -30 -10 -30 -14 0 -5 -20 -14 -45 -21 -25 -7
-45 -16 -45 -21 0 -4 -14 -10 -30 -14 -16 -4 -30 -10 -30 -15 0 -5 -13 -11
-30 -15 -16 -4 -30 -10 -30 -15 0 -5 -13 -11 -30 -15 -16 -4 -30 -10 -30 -15
0 -5 -13 -11 -30 -15 -16 -4 -30 -11 -30 -16 0 -5 -11 -11 -25 -15 -14 -3 -25
-10 -25 -14 0 -5 -13 -11 -30 -15 -16 -4 -30 -10 -30 -15 0 -5 -13 -11 -30
-15 -16 -4 -30 -10 -30 -15 0 -5 -13 -11 -30 -15 -16 -4 -30 -10 -30 -15 0 -5
-13 -11 -30 -15 -16 -4 -30 -10 -30 -15 0 -5 -14 -11 -30 -15 -17 -4 -30 -10
-30 -15 0 -5 -14 -11 -30 -15 -17 -4 -30 -10 -30 -15 0 -5 -14 -11 -30 -15
-17 -4 -30 -10 -30 -15 0 -5 -13 -11 -30 -15 -16 -4 -30 -10 -30 -15 0 -5 -14
-11 -30 -15 -17 -4 -30 -10 -30 -15 0 -5 -14 -11 -30 -15 -17 -4 -30 -10 -30
-15 0 -5 -13 -11 -30 -15 -16 -4 -30 -10 -30 -15 0 -5 -14 -11 -30 -15 -17 -4
-30 -10 -30 -15 0 -4 -9 -10 -20 -13 -20 -5 -20 0 -20 785 0 855 -3 809 54
824 14 3 26 10 26 14 0 5 14 11 30 15 17 4 30 10 30 15 0 5 13 11 30 15 16 4
30 10 30 15 0 4 11 11 25 14 14 4 25 10 25 15 0 5 13 12 30 16 16 4 30 10 30
15 0 5 14 11 30 15 17 4 30 10 30 15 0 5 13 11 30 15 16 4 30 10 30 15 0 5 13
11 30 15 16 4 30 10 30 15 0 5 13 11 30 15 16 4 30 10 30 15 0 4 11 11 25 14
14 4 25 10 25 15 0 5 14 12 30 16 17 4 30 10 30 15 0 5 14 11 30 15 16 4 30
10 30 15 0 5 13 11 30 15 16 4 30 10 30 15 0 5 14 11 30 15 17 4 30 10 30 15
0 5 14 11 30 15 17 4 30 10 30 15 0 4 11 11 25 14 14 4 25 10 25 15 0 5 13 12
30 16 16 4 30 10 30 15 0 5 14 11 30 15 16 4 30 10 30 15 0 5 13 11 30 15 16
4 30 10 30 15 0 5 13 11 30 15 17 4 30 10 30 15 0 5 13 11 30 15 16 4 30 10
30 15 0 4 11 11 25 14 14 4 25 10 25 15 0 5 13 12 30 16 17 4 30 10 30 15 0 5
13 11 30 15 16 4 30 10 30 15 0 5 13 11 30 15 16 4 30 10 30 15 0 5 13 11 30
15 16 4 30 10 30 15 0 5 13 11 30 15 16 4 30 10 30 15 0 5 14 11 30 15 17 4
30 11 30 16 0 5 11 11 25 15 14 3 25 10 25 14 0 5 13 11 30 15 16 4 30 10 30
15 0 5 13 11 30 15 17 4 30 10 30 15 0 5 13 11 30 15 16 4 30 10 30 14 0 5 20
14 45 21 25 7 45 16 45 20 0 4 11 11 25 14 14 4 25 10 25 15 0 5 13 12 30 16
17 4 30 10 30 15 0 5 14 11 30 15 17 4 30 10 30 15 0 5 13 11 30 15 17 4 30
10 30 15 0 5 13 11 30 15 17 4 30 10 30 15 0 5 13 11 30 15 17 4 30 10 30 15
0 4 11 11 25 14 14 4 25 10 25 15 0 5 13 12 30 16 17 4 30 10 30 15 0 5 14 11
30 15 17 4 30 10 30 15 0 5 14 11 30 15 17 4 30 10 30 15 0 5 14 11 30 15 17
4 30 10 30 15 0 5 14 11 30 15 17 4 30 10 30 15 0 4 11 11 25 14 14 4 25 10
25 15 0 5 14 12 30 16 17 4 30 10 30 15 0 5 14 11 30 15 17 4 30 10 30 15 0 5
14 11 30 15 17 4 30 10 30 15 0 5 14 11 30 15 17 4 30 10 30 15 0 5 14 11 30
15 17 4 30 10 30 15 0 4 11 11 25 14 14 4 25 10 25 15 0 5 14 12 30 16 17 4
30 10 30 15 0 5 14 11 30 15 17 4 30 10 30 15 0 5 14 11 30 15 17 4 30 10 30
15 0 5 14 11 30 15 17 4 30 10 30 15 0 5 14 11 30 15 17 4 30 10 30 15 0 4 11
11 25 14 14 4 25 10 25 15 0 5 14 12 30 16 17 4 30 10 30 15 0 5 14 11 30 15
17 4 30 10 30 15 0 5 14 11 30 15 17 4 31 12 32 18 2 7 4 -350 6 -793 1 -443
0 -815 -3 -827z m3531 760 c27 -9 55 -23 62 -30 7 -7 20 -13 28 -13 8 0 14 -4
14 -9 0 -5 14 -12 30 -16 17 -4 30 -10 30 -15 0 -5 14 -11 30 -15 17 -4 30
-10 30 -15 0 -5 14 -11 30 -15 17 -4 30 -10 30 -15 0 -5 14 -11 30 -15 17 -4
30 -10 30 -15 0 -5 14 -11 30 -15 17 -4 30 -11 30 -16 0 -5 11 -11 25 -15 14
-3 25 -10 25 -14 0 -5 14 -11 30 -15 17 -4 30 -10 30 -15 0 -5 14 -11 30 -15
17 -4 30 -10 30 -15 0 -5 14 -11 30 -15 17 -4 30 -10 30 -15 0 -5 14 -11 30
-15 17 -4 30 -10 30 -15 0 -5 14 -11 30 -15 17 -4 30 -11 30 -16 0 -5 11 -11
25 -15 14 -3 25 -10 25 -14 0 -5 14 -11 30 -15 17 -4 30 -10 30 -15 0 -5 14
-11 30 -15 17 -4 30 -10 30 -15 0 -5 14 -11 30 -15 17 -4 30 -10 30 -15 0 -5
14 -11 30 -15 17 -4 30 -10 30 -15 0 -5 14 -11 30 -15 17 -4 30 -11 30 -16 0
-5 11 -11 25 -15 14 -3 25 -10 25 -14 0 -5 14 -11 30 -15 17 -4 30 -10 30 -15
0 -5 14 -11 30 -15 17 -4 30 -10 30 -15 0 -5 14 -11 30 -15 17 -4 30 -10 30
-15 0 -5 14 -11 30 -15 17 -4 30 -10 30 -15 0 -5 14 -11 30 -15 17 -4 30 -11
30 -16 0 -5 11 -11 25 -15 14 -3 25 -10 25 -14 0 -5 14 -11 30 -15 17 -4 30
-10 30 -15 0 -5 14 -11 30 -15 17 -4 30 -10 30 -15 0 -5 14 -11 30 -15 17 -4
30 -10 30 -15 0 -5 14 -11 30 -15 17 -4 30 -10 30 -15 0 -5 14 -11 30 -15 17
-4 30 -11 30 -16 0 -5 11 -11 25 -15 14 -3 25 -10 25 -14 0 -5 14 -11 30 -15
17 -4 30 -10 30 -15 0 -5 14 -11 30 -15 17 -4 30 -10 30 -14 0 -4 19 -13 42
-20 22 -7 47 -19 55 -26 11 -11 13 -161 13 -830 l0 -816 -22 7 c-13 4 -25 10
-28 15 -3 4 -18 11 -33 14 -15 4 -27 11 -27 15 0 5 -13 11 -30 15 -16 4 -30
10 -30 15 0 5 -13 11 -30 15 -16 4 -30 10 -30 15 0 5 -13 11 -30 15 -16 4 -30
10 -30 15 0 5 -13 11 -30 15 -16 4 -30 11 -30 16 0 5 -11 11 -25 15 -14 3 -25
10 -25 14 0 5 -13 11 -30 15 -16 4 -30 10 -30 15 0 5 -13 11 -30 15 -16 4 -30
10 -30 15 0 5 -13 11 -30 15 -16 4 -30 10 -30 15 0 5 -13 11 -30 15 -16 4 -30
10 -30 15 0 5 -13 11 -30 15 -16 4 -30 10 -30 15 0 5 -13 11 -30 15 -16 4 -30
10 -30 15 0 5 -13 11 -30 15 -16 4 -30 10 -30 15 0 5 -13 11 -30 15 -16 4 -30
10 -30 15 0 5 -13 11 -30 15 -16 4 -30 10 -30 15 0 5 -13 11 -30 15 -16 4 -30
10 -30 15 0 5 -13 11 -30 15 -16 4 -30 10 -30 15 0 5 -13 11 -30 15 -16 4 -30
10 -30 15 0 5 -13 11 -30 15 -16 4 -30 10 -30 15 0 5 -13 11 -30 15 -16 4 -30
10 -30 15 0 5 -13 11 -30 15 -16 4 -30 10 -30 14 0 5 -20 14 -45 21 -25 7 -45
16 -45 21 0 4 -13 10 -30 14 -16 4 -30 11 -30 16 0 5 -11 11 -25 15 -14 3 -25
10 -25 14 0 5 -13 11 -30 15 -16 4 -30 10 -30 15 0 5 -13 11 -30 15 -16 4 -30
10 -30 15 0 5 -13 11 -30 15 -16 4 -30 10 -30 15 0 5 -13 11 -30 15 -16 4 -30
10 -30 15 0 5 -13 11 -30 15 -16 4 -30 10 -30 15 0 5 -13 11 -30 15 -16 4 -30
10 -30 15 0 5 -13 11 -30 15 -16 4 -30 10 -30 15 0 5 -13 11 -30 15 -16 4 -30
10 -30 15 0 5 -13 11 -30 15 -16 4 -30 10 -30 15 0 4 -12 11 -27 15 -15 3 -31
12 -35 18 -9 15 -87 15 -96 0 -4 -6 -20 -15 -35 -18 -15 -4 -27 -11 -27 -15 0
-5 -13 -11 -30 -15 -16 -4 -30 -10 -30 -15 0 -5 -13 -11 -30 -15 -16 -4 -30
-10 -30 -15 0 -5 -13 -11 -30 -15 -16 -4 -30 -10 -30 -15 0 -5 -13 -11 -30
-15 -16 -4 -30 -10 -30 -15 0 -5 -13 -11 -30 -15 -16 -4 -30 -10 -30 -15 0 -5
-13 -11 -30 -15 -16 -4 -30 -10 -30 -15 0 -5 -13 -11 -30 -15 -16 -4 -30 -10
-30 -15 0 -5 -13 -11 -30 -15 -16 -4 -30 -10 -30 -15 0 -5 -13 -11 -30 -15
-16 -4 -30 -10 -30 -15 0 -4 -11 -11 -25 -14 -14 -4 -25 -10 -25 -15 0 -5 -13
-12 -30 -16 -16 -4 -30 -10 -30 -14 0 -5 -20 -14 -45 -21 -25 -7 -45 -16 -45
-21 0 -4 -13 -10 -30 -14 -16 -4 -30 -10 -30 -15 0 -5 -13 -11 -30 -15 -16 -4
-30 -10 -30 -15 0 -5 -13 -11 -30 -15 -16 -4 -30 -10 -30 -15 0 -5 -13 -11
-30 -15 -16 -4 -30 -10 -30 -15 0 -5 -13 -11 -30 -15 -16 -4 -30 -10 -30 -15
0 -5 -13 -11 -30 -15 -16 -4 -30 -10 -30 -15 0 -5 -13 -11 -30 -15 -16 -4 -30
-10 -30 -15 0 -5 -13 -11 -30 -15 -16 -4 -30 -10 -30 -15 0 -5 -13 -11 -30
-15 -16 -4 -30 -10 -30 -15 0 -5 -13 -11 -30 -15 -16 -4 -30 -10 -30 -15 0 -5
-13 -11 -30 -15 -16 -4 -30 -10 -30 -15 0 -5 -13 -11 -30 -15 -16 -4 -30 -10
-30 -15 0 -5 -13 -11 -30 -15 -16 -4 -30 -10 -30 -15 0 -5 -13 -11 -30 -15
-16 -4 -30 -10 -30 -15 0 -5 -13 -11 -30 -15 -16 -4 -30 -10 -30 -15 0 -4 -11
-11 -25 -14 -14 -4 -25 -10 -25 -15 0 -5 -13 -12 -30 -16 -16 -4 -30 -10 -30
-15 0 -5 -13 -11 -30 -15 -16 -4 -30 -10 -30 -15 0 -5 -13 -11 -30 -15 -16 -4
-30 -10 -30 -15 0 -5 -13 -11 -30 -15 -16 -4 -30 -10 -30 -15 0 -4 -12 -11
-27 -15 -15 -3 -31 -12 -35 -18 -4 -7 -7 361 -5 818 l2 829 33 10 c17 5 32 12
32 17 0 4 14 10 30 14 17 4 30 10 30 15 0 5 14 11 30 15 17 4 30 10 30 15 0 4
11 11 25 14 14 4 25 10 25 15 0 5 14 12 30 16 17 4 30 10 30 15 0 5 14 11 30
15 17 4 30 10 30 15 0 5 14 11 30 15 17 4 30 10 30 15 0 5 14 11 30 15 17 4
30 10 30 15 0 5 14 11 30 15 17 4 30 10 30 15 0 4 11 11 25 14 14 4 25 10 25
15 0 5 14 12 30 16 17 4 30 10 30 15 0 5 14 11 30 15 17 4 30 10 30 15 0 5 14
11 30 15 17 4 30 10 30 15 0 5 14 11 30 15 17 4 30 10 30 15 0 5 14 11 30 15
17 4 30 10 30 15 0 4 11 11 25 14 14 4 25 10 25 15 0 5 14 12 30 16 17 4 30
10 30 15 0 5 14 11 30 15 17 4 30 10 30 15 0 5 14 11 30 15 17 4 30 10 30 15
0 5 14 11 30 15 17 4 30 10 30 15 0 5 14 11 30 15 17 4 30 10 30 15 0 4 11 11
25 14 14 4 25 10 25 15 0 5 14 12 30 16 17 4 30 10 30 15 0 5 14 11 30 15 17
4 30 10 30 15 0 5 14 11 30 15 17 4 30 10 30 15 0 5 14 11 30 15 17 4 30 10
30 15 0 5 14 11 30 15 17 4 30 10 30 15 0 4 11 11 25 14 14 4 25 10 25 15 0 5
14 12 30 16 17 4 30 10 30 15 0 5 14 11 30 15 17 4 30 10 30 15 0 5 14 11 30
15 17 4 30 10 30 15 0 5 14 11 30 15 17 4 30 10 30 15 0 5 14 11 30 15 17 4
30 11 30 16 0 5 6 9 14 9 8 0 21 6 28 13 16 16 94 45 124 46 11 1 43 -7 70
-16z m-3526 -2549 c0 -807 0 -816 -20 -821 -11 -3 -20 -9 -20 -13 0 -5 -13
-11 -30 -15 -16 -4 -30 -10 -30 -15 0 -5 -13 -11 -30 -15 -16 -4 -30 -10 -30
-15 0 -5 -13 -11 -30 -15 -16 -4 -30 -10 -30 -15 0 -5 -13 -11 -30 -15 -16 -4
-30 -10 -30 -15 0 -5 -13 -11 -30 -15 -16 -4 -30 -10 -30 -15 0 -5 -13 -11
-30 -15 -16 -4 -30 -10 -30 -15 0 -5 -13 -11 -30 -15 -16 -4 -30 -10 -30 -15
0 -5 -13 -11 -30 -15 -16 -4 -30 -10 -30 -15 0 -5 -13 -11 -30 -15 -16 -4 -30
-11 -30 -16 0 -5 -11 -11 -25 -15 -14 -3 -25 -10 -25 -14 0 -5 -13 -11 -30
-15 -16 -4 -30 -10 -30 -15 0 -5 -13 -11 -30 -15 -16 -4 -30 -10 -30 -15 0 -5
-13 -11 -30 -15 -16 -4 -30 -10 -30 -15 0 -5 -13 -11 -30 -15 -16 -4 -30 -10
-30 -15 0 -5 -13 -11 -30 -15 -16 -4 -30 -10 -30 -15 0 -5 -13 -11 -30 -15
-16 -4 -30 -10 -30 -15 0 -5 -13 -11 -30 -15 -16 -4 -30 -10 -30 -15 0 -5 -13
-11 -30 -15 -16 -4 -30 -10 -30 -15 0 -5 -13 -11 -30 -15 -16 -4 -30 -10 -30
-15 0 -5 -13 -11 -30 -15 -16 -4 -30 -10 -30 -15 0 -5 -13 -11 -30 -15 -17 -4
-30 -10 -30 -15 0 -5 -13 -11 -30 -15 -17 -4 -30 -10 -30 -15 0 -5 -13 -11
-30 -15 -16 -4 -30 -10 -30 -15 0 -5 -13 -11 -30 -15 -17 -4 -30 -10 -30 -14
0 -5 -20 -14 -45 -21 -25 -7 -45 -16 -45 -21 0 -4 -13 -10 -30 -14 -17 -4 -30
-10 -30 -15 0 -5 -14 -11 -30 -15 -16 -4 -30 -11 -30 -16 0 -5 -11 -11 -25
-15 -14 -3 -25 -10 -25 -14 0 -5 -14 -11 -30 -15 -17 -4 -30 -10 -30 -15 0 -5
-14 -11 -30 -15 -17 -4 -30 -10 -30 -15 0 -5 -14 -11 -30 -15 -17 -4 -30 -10
-30 -15 0 -5 -14 -11 -30 -15 -16 -4 -30 -10 -30 -15 0 -5 -14 -11 -30 -15
-17 -4 -30 -10 -30 -15 0 -5 -13 -11 -30 -15 -16 -4 -30 -10 -30 -15 0 -5 -14
-11 -30 -15 -17 -4 -30 -10 -30 -15 0 -5 -13 -11 -30 -15 -16 -4 -30 -10 -30
-15 0 -5 -14 -11 -30 -15 -17 -4 -30 -10 -30 -15 0 -5 -14 -11 -30 -15 -16 -4
-30 -10 -30 -15 0 -5 -13 -11 -30 -15 -16 -4 -30 -10 -30 -15 0 -5 -13 -11
-30 -15 -17 -4 -30 -10 -30 -15 0 -5 -14 -11 -30 -15 -17 -4 -30 -10 -30 -15
0 -5 -14 -11 -30 -15 -17 -4 -30 -10 -30 -15 0 -5 -14 -11 -30 -15 -16 -4 -30
-10 -30 -15 0 -5 -13 -11 -30 -15 -16 -4 -30 -10 -30 -15 0 -5 -13 -11 -30
-15 -16 -4 -30 -10 -30 -15 0 -5 -13 -11 -30 -15 -16 -4 -30 -11 -30 -16 0 -5
-11 -11 -25 -15 -14 -3 -25 -10 -25 -14 0 -5 -13 -11 -30 -15 -16 -4 -30 -10
-30 -15 0 -5 -13 -11 -30 -15 -16 -4 -30 -10 -30 -15 0 -5 -13 -11 -30 -15
-16 -4 -30 -10 -30 -15 0 -5 -13 -11 -30 -15 -16 -4 -30 -10 -30 -15 0 -5 -14
-11 -30 -15 -17 -4 -30 -10 -30 -15 0 -5 -14 -11 -30 -15 -17 -4 -30 -10 -30
-15 0 -5 -14 -11 -30 -15 -17 -4 -30 -10 -30 -15 0 -5 -13 -11 -30 -15 -16 -4
-30 -10 -30 -15 0 -5 -14 -11 -30 -15 -17 -4 -30 -10 -30 -15 0 -5 -14 -11
-30 -15 -17 -4 -30 -10 -30 -15 0 -4 -12 -11 -27 -15 -15 -3 -30 -10 -33 -14
-3 -4 -26 -15 -52 -24 l-48 -16 0 794 0 795 25 6 c14 3 25 10 25 14 0 5 14 11
30 15 17 4 30 10 30 15 0 5 13 11 30 15 16 4 30 10 30 15 0 5 13 11 30 15 16
4 30 11 30 16 0 5 11 11 25 15 14 3 25 10 25 14 0 5 13 11 30 15 16 4 30 10
30 15 0 5 14 11 30 15 17 4 30 10 30 15 0 5 13 11 30 15 16 4 30 10 30 15 0 5
13 11 30 15 16 4 30 10 30 15 0 5 13 11 30 15 16 4 30 11 30 16 0 5 11 11 25
15 14 3 25 10 25 14 0 5 13 11 30 15 16 4 30 10 30 15 0 5 13 11 30 15 16 4
30 10 30 15 0 5 13 11 30 15 16 4 30 10 30 15 0 5 14 11 30 15 17 4 30 10 30
14 0 4 18 13 40 20 22 6 40 16 40 21 0 4 13 11 30 15 16 4 30 10 30 15 0 5 14
11 30 15 16 4 30 10 30 15 0 5 13 11 30 15 16 4 30 10 30 15 0 5 13 11 30 15
17 4 30 10 30 15 0 5 13 11 30 15 16 4 30 10 30 15 0 4 11 11 25 14 14 4 25
10 25 15 0 5 13 12 30 16 17 4 30 10 30 15 0 5 13 11 30 15 16 4 30 10 30 15
0 5 13 11 30 15 16 4 30 10 30 15 0 5 13 11 30 15 16 4 30 10 30 15 0 5 13 11
30 15 16 4 30 10 30 15 0 5 14 11 30 15 17 4 30 11 30 16 0 5 11 11 25 15 14
3 25 10 25 14 0 5 13 11 30 15 16 4 30 10 30 15 0 5 13 11 30 15 17 4 30 10
30 15 0 5 13 11 30 15 16 4 30 10 30 15 0 5 13 11 30 15 16 4 30 10 30 15 0 5
13 11 30 15 17 4 30 11 30 16 0 5 11 11 25 15 14 3 25 10 25 14 0 5 13 11 30
15 17 4 30 10 30 15 0 5 13 11 30 15 17 4 30 10 30 15 0 5 14 11 30 15 17 4
30 10 30 15 0 5 14 11 30 15 17 4 30 10 30 15 0 5 14 11 30 15 17 4 30 11 30
16 0 5 11 11 25 15 14 3 25 10 25 14 0 5 14 11 30 15 17 4 30 10 30 15 0 5 14
11 30 15 17 4 30 10 30 15 0 5 14 11 30 15 17 4 30 10 30 15 0 5 14 11 30 15
17 4 30 10 30 15 0 5 14 11 30 15 17 4 30 11 30 16 0 5 11 11 25 15 14 3 25
10 25 14 0 5 14 11 30 15 17 4 30 10 30 15 0 5 14 11 30 15 17 4 30 10 30 15
0 5 14 11 30 15 17 4 30 10 30 14 0 5 20 14 45 21 25 7 45 16 45 20 0 4 11 11
25 14 14 4 25 10 25 15 0 5 14 12 30 16 17 4 30 10 30 15 0 5 14 11 30 15 17
4 30 10 30 15 0 5 14 11 30 15 17 4 30 10 30 15 0 5 14 11 30 15 17 4 30 10
30 15 0 5 14 11 30 15 17 4 30 10 30 15 0 4 11 11 25 14 14 4 25 10 25 15 0 5
14 12 30 16 17 4 30 10 30 15 0 5 14 11 30 15 17 4 30 10 30 15 0 5 14 11 30
15 17 4 30 11 30 16 0 5 2 9 5 9 3 0 5 -367 5 -816z"/>
<path d="M7024 13651 c-38 -23 -58 -70 -50 -113 7 -37 49 -88 71 -88 8 0 15
-9 15 -20 0 -19 -6 -21 -52 -20 -29 1 -68 0 -85 -3 -18 -2 -44 -4 -57 -5 -43
-3 -44 -62 -2 -62 12 0 27 -5 34 -12 8 -8 15 -8 24 -1 7 6 40 8 76 5 l63 -4
-3 -40 c-3 -37 -6 -41 -43 -54 -75 -25 -110 -99 -66 -138 11 -10 39 -23 63
-30 l43 -13 3 -67 c2 -55 0 -66 -13 -66 -29 0 -91 -38 -129 -80 -34 -38 -62
-47 -50 -16 3 8 -3 17 -13 20 -24 8 -87 72 -108 111 l-17 30 6 -59 c6 -71 57
-156 96 -161 3 0 15 -6 28 -13 19 -11 22 -20 22 -82 0 -54 3 -70 14 -70 18 0
24 23 22 73 -2 21 0 40 4 42 3 2 41 -14 84 -35 78 -39 79 -39 105 -21 14 9 51
28 81 40 30 13 71 33 90 44 19 12 41 22 49 22 33 0 101 132 101 195 -1 24 -1
24 -15 5 -55 -77 -71 -95 -100 -111 -18 -10 -31 -23 -28 -30 8 -22 -70 -54
-132 -54 l-55 0 0 64 c0 61 1 64 30 76 87 36 86 146 -1 165 -29 6 -29 8 -29
76 0 59 3 69 18 69 62 1 192 105 192 155 0 14 -4 25 -9 25 -4 0 -16 20 -26 45
-9 25 -30 56 -46 67 -16 12 -29 30 -29 40 0 37 -29 87 -59 102 -40 21 -79 20
-117 -3z m108 -34 c36 -29 43 -77 12 -77 -14 0 -14 -3 -4 -15 11 -13 10 -18
-6 -30 -26 -20 -34 -18 -34 5 0 13 -7 20 -20 20 -13 0 -20 -7 -20 -20 0 -30
-18 -24 -40 13 -25 39 -19 73 16 105 32 28 62 28 96 -1z m80 -134 c20 -23 41
-64 36 -69 -3 -2 -15 -4 -29 -4 -13 1 -45 0 -71 0 -37 -1 -48 3 -48 15 0 8 10
19 23 24 12 5 31 18 41 30 23 26 29 26 48 4z m18 -168 c0 -13 -60 -46 -107
-60 -21 -6 -23 -3 -23 36 l0 42 39 -6 c21 -2 44 -1 51 3 17 10 40 2 40 -15z
m-170 -165 c0 -65 -6 -70 -54 -48 -61 27 -35 105 37 107 14 1 17 -8 17 -59z
m86 -114 c28 -34 18 -77 -22 -95 -24 -11 -24 -10 -24 50 0 58 1 60 23 53 12
-3 22 -7 23 -8z m-86 -206 l0 -60 -64 0 c-36 0 -68 5 -72 11 -12 20 91 108
129 109 4 0 7 -27 7 -60z"/>
<path d="M7075 12133 c-40 -8 -81 -27 -115 -52 -46 -34 -55 -45 -86 -110 -23
-47 -26 -64 -22 -121 6 -85 53 -163 121 -203 25 -15 50 -27 56 -27 7 0 11 23
11 58 0 32 5 63 12 70 7 7 30 12 53 12 23 0 46 -5 53 -12 7 -7 12 -38 12 -69
0 -32 4 -61 10 -64 20 -12 150 74 150 100 0 3 -12 17 -27 29 -24 21 -26 27
-18 52 8 23 19 31 53 38 42 10 42 10 42 56 0 82 -66 178 -149 218 -44 22 -119
33 -156 25z"/>
<path d="M7425 11632 c-36 -55 -121 -115 -194 -137 l-61 -18 0 -44 c0 -38 4
-45 26 -53 41 -16 141 -13 148 5 4 10 19 15 49 15 27 0 49 -6 57 -15 14 -17
115 -21 125 -5 3 6 24 10 46 10 28 0 39 4 39 15 0 29 -42 126 -66 152 -13 14
-24 29 -24 32 0 4 -13 15 -30 24 -16 10 -30 24 -30 31 0 7 -6 13 -12 13 -7 0
-21 4 -30 8 -12 5 -23 -4 -43 -33z"/>
<path d="M7455 11100 c-35 -23 -70 -25 -105 -5 -25 14 -134 20 -164 9 -13 -5
-16 -26 -16 -124 0 -67 4 -121 10 -125 19 -12 183 38 272 83 65 33 168 114
168 133 0 5 -9 9 -20 9 -11 0 -25 9 -32 20 -17 26 -73 26 -113 0z"/>
<path d="M6940 10690 c-30 -11 -62 -20 -72 -20 -10 0 -18 -4 -18 -8 0 -4 -14
-16 -30 -25 -42 -25 -70 -85 -70 -149 0 -45 5 -59 31 -91 16 -20 44 -43 62
-52 28 -13 162 -45 188 -45 5 0 9 85 9 205 l0 205 -22 0 c-13 -1 -48 -10 -78
-20z"/>
<path d="M7170 9970 c0 -137 3 -182 13 -186 7 -2 40 9 75 26 86 41 122 92 121
169 0 34 -7 68 -18 86 -21 36 -111 85 -157 85 l-34 0 0 -180z"/>
<path d="M6928 9591 c-36 -16 -87 -42 -113 -60 -25 -17 -50 -31 -56 -31 -5 0
-9 -3 -9 -7 0 -5 -14 -17 -30 -28 -17 -11 -50 -45 -72 -75 -23 -30 -45 -56
-50 -58 -4 -2 -8 -11 -8 -21 0 -9 -5 -22 -10 -27 -33 -33 114 -66 290 -65 52
0 111 4 130 9 l35 8 3 192 2 192 -22 0 c-13 0 -53 -13 -90 -29z"/>
</g>
</svg>
