<?xml version="1.0" standalone="no"?>
<!DOCTYPE svg PUBLIC "-//W3C//DTD SVG 20010904//EN"
 "http://www.w3.org/TR/2001/REC-SVG-20010904/DTD/svg10.dtd">
<svg version="1.0" xmlns="http://www.w3.org/2000/svg"
 width="1417.000000pt" height="1417.000000pt" viewBox="0 0 1417.000000 1417.000000"
 preserveAspectRatio="xMidYMid meet">

<g transform="translate(0.000000,1417.000000) scale(0.100000,-0.100000)"
fill="#000000" stroke="none">
<path d="M0 7085 l0 -7085 7085 0 7085 0 -2 267 -3 266 -45 15 c-25 8 -47 18
-50 23 -3 4 -18 11 -33 14 -15 4 -27 11 -27 15 0 5 -13 11 -30 15 -16 4 -30
10 -30 15 0 5 -13 11 -30 15 -16 4 -30 10 -30 15 0 5 -13 11 -30 15 -16 4 -30
10 -30 15 0 5 -13 11 -30 15 -16 4 -30 10 -30 15 0 5 -13 11 -30 15 -16 4 -30
10 -30 15 0 5 -13 11 -30 15 -16 4 -30 10 -30 15 0 5 -14 11 -30 15 -16 4 -30
10 -30 15 0 5 -13 11 -30 15 -16 4 -30 10 -30 15 0 5 -13 11 -30 15 -16 4 -30
10 -30 15 0 5 -13 11 -30 15 -16 4 -30 10 -30 15 0 4 -11 11 -25 14 -14 4 -25
10 -25 15 0 5 -13 12 -30 16 -16 4 -30 10 -30 15 0 5 -14 11 -30 15 -17 4 -30
10 -30 15 0 5 -13 11 -30 15 -16 4 -30 10 -30 15 0 5 -13 11 -30 15 -16 4 -30
10 -30 15 0 5 -13 11 -30 15 -16 4 -30 10 -30 15 0 5 -13 11 -30 15 -16 4 -30
10 -30 15 0 5 -13 11 -30 15 -16 4 -30 10 -30 15 0 5 -13 11 -30 15 -16 4 -30
10 -30 15 0 5 -13 11 -30 15 -16 4 -30 10 -30 15 0 5 -13 11 -30 15 -16 4 -30
10 -30 15 0 5 -13 11 -30 15 -16 4 -30 10 -30 15 0 5 -13 11 -30 15 -16 4 -30
10 -30 15 0 5 -13 11 -30 15 -16 4 -30 10 -30 15 0 5 -13 11 -30 15 -16 4 -30
10 -30 15 0 5 -13 11 -30 15 -16 4 -30 10 -30 15 0 5 -13 11 -30 15 -16 4 -30
10 -30 15 0 5 -13 11 -30 15 -16 4 -30 10 -30 15 0 5 -13 11 -30 15 -16 4 -30
10 -30 15 0 4 -11 11 -25 14 -14 4 -25 10 -25 15 0 5 -13 12 -30 16 -16 4 -30
10 -30 15 0 5 -13 11 -30 15 -16 4 -30 10 -30 14 0 5 -20 14 -45 21 -25 7 -45
16 -45 21 0 4 -13 10 -30 14 -16 4 -30 10 -30 15 0 5 -13 11 -30 15 -16 4 -30
10 -30 15 0 5 -13 11 -30 15 -16 4 -30 10 -30 15 0 5 -13 11 -30 15 -16 4 -30
10 -30 15 0 5 -13 11 -30 15 -16 4 -30 10 -30 15 0 5 -13 11 -30 15 -16 4 -30
10 -30 15 0 5 -13 11 -30 15 -16 4 -30 10 -30 15 0 5 -13 11 -30 15 -16 4 -30
10 -30 15 0 5 -13 11 -30 15 -16 4 -30 10 -30 15 0 5 -13 11 -30 15 -16 4 -30
10 -30 15 0 5 -13 11 -30 15 -16 4 -30 10 -30 15 0 5 -13 11 -30 15 -16 4 -30
10 -30 15 0 5 -13 11 -30 15 -16 4 -30 10 -30 15 0 5 -13 11 -30 15 -16 4 -30
10 -30 15 0 4 -11 11 -25 14 -14 4 -25 10 -25 15 0 5 -13 12 -30 16 -16 4 -30
10 -30 15 0 5 -13 11 -30 15 -16 4 -30 10 -30 15 0 5 -13 11 -30 15 -16 4 -30
10 -30 15 0 5 -13 11 -30 15 -16 4 -30 10 -30 15 0 5 -13 11 -30 15 -16 4 -30
10 -30 15 0 5 -13 11 -30 15 -16 4 -30 10 -30 15 0 5 -13 11 -30 15 -16 4 -30
10 -30 15 0 5 -13 11 -30 15 -16 4 -30 10 -30 15 0 5 -13 11 -30 15 -16 4 -30
10 -30 15 0 5 -13 11 -30 15 -16 4 -30 10 -30 15 0 5 -13 11 -30 15 -16 4 -30
10 -30 15 0 5 -13 11 -30 15 -16 4 -30 10 -30 15 0 5 -13 11 -30 15 -16 4 -30
10 -30 15 0 5 -13 11 -30 15 -16 4 -30 10 -30 15 0 5 -13 11 -30 15 -16 4 -30
10 -30 15 0 5 -13 11 -30 15 -16 4 -30 10 -30 15 0 5 -13 11 -30 15 -16 4 -30
10 -30 15 0 5 -13 11 -30 15 -16 4 -30 10 -30 14 0 4 -18 14 -40 21 -22 7 -40
17 -40 21 0 4 -13 10 -30 14 -16 4 -30 10 -30 15 0 5 -13 11 -30 15 -16 4 -30
10 -30 15 0 5 -13 11 -30 15 -16 4 -30 10 -30 15 0 5 -13 11 -30 15 -16 4 -30
10 -30 15 0 5 -13 11 -30 15 -16 4 -30 10 -30 15 0 5 -13 11 -30 15 -16 4 -30
10 -30 15 0 5 -13 11 -30 15 -16 4 -30 10 -30 15 0 5 -13 11 -30 15 -16 4 -30
10 -30 15 0 5 -13 11 -30 15 -16 4 -30 10 -30 15 0 5 -13 11 -30 15 -16 4 -30
10 -30 15 0 5 -13 11 -30 15 -16 4 -30 10 -30 15 0 5 -13 11 -30 15 -16 4 -30
10 -30 15 0 5 -13 11 -30 15 -16 4 -30 10 -30 15 0 5 -13 11 -30 15 -16 4 -30
10 -30 15 0 5 -13 11 -30 15 -16 4 -30 10 -30 15 0 5 -13 11 -30 15 -16 4 -30
10 -30 15 0 5 -13 11 -30 15 -16 4 -30 10 -30 15 0 5 -13 11 -30 15 -16 4 -30
11 -30 16 0 5 -11 11 -25 15 -14 3 -25 10 -25 14 0 5 -13 11 -30 15 -16 4 -30
10 -30 15 0 5 -13 11 -30 15 -16 4 -30 10 -30 15 0 5 -13 11 -30 15 -16 4 -30
10 -30 15 0 5 -13 11 -30 15 -16 4 -30 10 -30 15 0 5 -13 11 -30 15 -16 4 -30
10 -30 15 0 5 -13 11 -30 15 -16 4 -30 10 -30 15 0 5 -13 11 -30 15 -16 4 -30
10 -30 15 0 5 -13 11 -30 15 -16 4 -30 10 -30 15 0 5 -13 11 -30 15 -16 4 -30
10 -30 15 0 5 -13 11 -30 15 -16 4 -30 10 -30 15 0 5 -13 11 -30 15 -16 4 -30
10 -30 15 0 5 -13 11 -30 15 -16 4 -30 10 -30 15 0 5 -13 11 -30 15 -16 4 -30
10 -30 15 0 5 -13 11 -30 15 -16 4 -30 10 -30 15 0 5 -13 11 -30 15 -16 4 -30
10 -30 14 0 5 -20 14 -45 21 -25 7 -45 16 -45 21 0 4 -13 10 -30 14 -16 4 -30
11 -30 16 0 5 -11 11 -25 15 -14 3 -25 10 -25 14 0 5 -13 11 -30 15 -16 4 -30
10 -30 15 0 5 -13 11 -30 15 -16 4 -30 10 -30 15 0 5 -13 11 -30 15 -16 4 -30
10 -30 15 0 5 -13 11 -30 15 -16 4 -30 10 -30 15 0 5 -13 11 -30 15 -16 4 -30
10 -30 15 0 5 -13 11 -30 15 -16 4 -30 10 -30 15 0 5 -13 11 -30 15 -16 4 -30
10 -30 15 0 5 -13 11 -30 15 -16 4 -30 10 -30 15 0 5 -13 11 -30 15 -16 4 -30
10 -30 15 0 4 -12 11 -27 15 -15 3 -31 12 -35 18 -9 15 -87 15 -96 0 -4 -6
-20 -15 -35 -18 -15 -4 -27 -11 -27 -15 0 -5 -13 -11 -30 -15 -16 -4 -30 -10
-30 -15 0 -5 -13 -11 -30 -15 -16 -4 -30 -10 -30 -15 0 -5 -13 -11 -30 -15
-16 -4 -30 -10 -30 -15 0 -5 -13 -11 -30 -15 -16 -4 -30 -10 -30 -15 0 -5 -13
-11 -30 -15 -16 -4 -30 -10 -30 -15 0 -5 -13 -11 -30 -15 -16 -4 -30 -10 -30
-15 0 -5 -13 -11 -30 -15 -16 -4 -30 -10 -30 -15 0 -5 -13 -11 -30 -15 -16 -4
-30 -10 -30 -15 0 -5 -13 -11 -30 -15 -16 -4 -30 -10 -30 -15 0 -4 -11 -11
-25 -14 -14 -4 -25 -10 -25 -15 0 -5 -13 -12 -30 -16 -16 -4 -30 -10 -30 -14
0 -5 -20 -14 -45 -21 -25 -7 -45 -16 -45 -21 0 -4 -13 -10 -30 -14 -16 -4 -30
-10 -30 -15 0 -5 -13 -11 -30 -15 -16 -4 -30 -10 -30 -15 0 -5 -13 -11 -30
-15 -16 -4 -30 -10 -30 -15 0 -5 -13 -11 -30 -15 -16 -4 -30 -10 -30 -15 0 -5
-13 -11 -30 -15 -16 -4 -30 -10 -30 -15 0 -5 -13 -11 -30 -15 -16 -4 -30 -10
-30 -15 0 -5 -13 -11 -30 -15 -16 -4 -30 -10 -30 -15 0 -5 -13 -11 -30 -15
-16 -4 -30 -10 -30 -15 0 -5 -13 -11 -30 -15 -16 -4 -30 -10 -30 -15 0 -5 -13
-11 -30 -15 -16 -4 -30 -10 -30 -15 0 -5 -13 -11 -30 -15 -16 -4 -30 -10 -30
-15 0 -5 -13 -11 -30 -15 -16 -4 -30 -10 -30 -15 0 -5 -13 -11 -30 -15 -16 -4
-30 -10 -30 -15 0 -5 -13 -11 -30 -15 -16 -4 -30 -10 -30 -15 0 -5 -13 -11
-30 -15 -16 -4 -30 -10 -30 -15 0 -4 -11 -11 -25 -14 -14 -4 -25 -10 -25 -15
0 -5 -13 -12 -30 -16 -16 -4 -30 -10 -30 -15 0 -5 -13 -11 -30 -15 -16 -4 -30
-10 -30 -15 0 -5 -13 -11 -30 -15 -16 -4 -30 -10 -30 -15 0 -5 -13 -11 -30
-15 -16 -4 -30 -10 -30 -15 0 -5 -13 -11 -30 -15 -16 -4 -30 -10 -30 -15 0 -5
-13 -11 -30 -15 -16 -4 -30 -10 -30 -15 0 -5 -13 -11 -30 -15 -16 -4 -30 -10
-30 -15 0 -5 -13 -11 -30 -15 -16 -4 -30 -10 -30 -15 0 -5 -13 -11 -30 -15
-16 -4 -30 -10 -30 -15 0 -5 -13 -11 -30 -15 -16 -4 -30 -10 -30 -15 0 -5 -13
-11 -30 -15 -16 -4 -30 -10 -30 -15 0 -5 -13 -11 -30 -15 -16 -4 -30 -10 -30
-15 0 -5 -13 -11 -30 -15 -16 -4 -30 -10 -30 -15 0 -5 -13 -11 -30 -15 -16 -4
-30 -10 -30 -15 0 -5 -13 -11 -30 -15 -16 -4 -30 -10 -30 -15 0 -5 -13 -11
-30 -15 -16 -4 -30 -10 -30 -15 0 -5 -13 -11 -30 -15 -16 -4 -30 -10 -30 -15
0 -5 -13 -11 -30 -15 -16 -4 -30 -10 -30 -14 0 -4 -18 -14 -40 -21 -22 -7 -40
-17 -40 -21 0 -4 -13 -10 -30 -14 -16 -4 -30 -10 -30 -15 0 -5 -13 -11 -30
-15 -16 -4 -30 -10 -30 -15 0 -5 -13 -11 -30 -15 -16 -4 -30 -10 -30 -15 0 -5
-14 -11 -30 -15 -17 -4 -30 -10 -30 -15 0 -5 -14 -11 -30 -15 -17 -4 -30 -10
-30 -15 0 -5 -13 -11 -30 -15 -16 -4 -30 -10 -30 -15 0 -5 -13 -11 -30 -15
-16 -4 -30 -10 -30 -15 0 -5 -13 -11 -30 -15 -16 -4 -30 -10 -30 -15 0 -5 -13
-11 -30 -15 -16 -4 -30 -10 -30 -15 0 -5 -13 -11 -30 -15 -16 -4 -30 -10 -30
-15 0 -5 -13 -11 -30 -15 -16 -4 -30 -10 -30 -15 0 -5 -13 -11 -30 -15 -16 -4
-30 -10 -30 -15 0 -5 -13 -11 -30 -15 -16 -4 -30 -10 -30 -15 0 -5 -13 -11
-30 -15 -16 -4 -30 -10 -30 -15 0 -5 -13 -11 -30 -15 -16 -4 -30 -10 -30 -15
0 -5 -13 -11 -30 -15 -16 -4 -30 -10 -30 -15 0 -5 -13 -11 -30 -15 -16 -4 -30
-10 -30 -15 0 -5 -13 -11 -30 -15 -16 -4 -30 -11 -30 -16 0 -5 -11 -11 -25
-15 -14 -3 -25 -10 -25 -14 0 -5 -13 -11 -30 -15 -16 -4 -30 -10 -30 -15 0 -5
-13 -11 -30 -15 -16 -4 -30 -10 -30 -15 0 -5 -14 -11 -30 -15 -17 -4 -30 -10
-30 -15 0 -5 -13 -11 -30 -15 -17 -4 -30 -10 -30 -15 0 -5 -13 -11 -30 -15
-16 -4 -30 -10 -30 -15 0 -5 -13 -11 -30 -15 -16 -4 -30 -10 -30 -15 0 -5 -13
-11 -30 -15 -16 -4 -30 -10 -30 -15 0 -5 -13 -11 -30 -15 -16 -4 -30 -10 -30
-15 0 -5 -13 -11 -30 -15 -16 -4 -30 -10 -30 -15 0 -5 -13 -11 -30 -15 -16 -4
-30 -10 -30 -15 0 -5 -13 -11 -30 -15 -17 -4 -30 -10 -30 -15 0 -5 -13 -11
-30 -15 -16 -4 -30 -10 -30 -15 0 -5 -13 -11 -30 -15 -16 -4 -30 -10 -30 -15
0 -5 -13 -11 -30 -15 -16 -4 -30 -10 -30 -14 0 -5 -20 -14 -45 -21 -25 -7 -45
-16 -45 -21 0 -4 -13 -10 -30 -14 -16 -4 -30 -10 -30 -15 0 -5 -13 -11 -30
-15 -16 -4 -30 -11 -30 -16 0 -5 -11 -11 -25 -15 -14 -3 -25 -10 -25 -14 0 -5
-13 -11 -30 -15 -16 -4 -30 -10 -30 -15 0 -5 -13 -11 -30 -15 -16 -4 -30 -10
-30 -15 0 -5 -13 -11 -30 -15 -16 -4 -30 -10 -30 -15 0 -5 -13 -11 -30 -15
-16 -4 -30 -10 -30 -15 0 -5 -13 -11 -30 -15 -16 -4 -30 -10 -30 -15 0 -5 -13
-11 -30 -15 -16 -4 -30 -10 -30 -15 0 -5 -13 -11 -30 -15 -16 -4 -30 -10 -30
-15 0 -5 -13 -11 -30 -15 -16 -4 -30 -10 -30 -15 0 -5 -13 -11 -30 -15 -16 -4
-30 -10 -30 -15 0 -5 -13 -11 -30 -15 -16 -4 -30 -10 -30 -15 0 -5 -13 -11
-30 -15 -16 -4 -30 -10 -30 -15 0 -5 -13 -11 -30 -15 -16 -4 -30 -10 -30 -15
0 -5 -13 -11 -30 -15 -16 -4 -30 -10 -30 -15 0 -5 -13 -11 -30 -15 -16 -4 -30
-10 -30 -15 0 -5 -13 -11 -30 -15 -16 -4 -30 -10 -30 -15 0 -5 -13 -11 -30
-15 -16 -4 -30 -10 -30 -15 0 -5 -13 -11 -30 -15 -16 -4 -30 -10 -30 -15 0 -5
-13 -11 -30 -15 -16 -4 -30 -11 -30 -16 0 -5 -11 -11 -25 -15 -14 -3 -25 -10
-25 -14 0 -5 -14 -11 -30 -15 -17 -4 -30 -10 -30 -15 0 -5 -13 -11 -30 -15
-16 -4 -30 -10 -30 -15 0 -5 -13 -11 -30 -15 -16 -4 -30 -10 -30 -15 0 -5 -13
-11 -30 -15 -16 -4 -30 -10 -30 -15 0 -5 -14 -11 -30 -15 -17 -4 -30 -10 -30
-15 0 -5 -13 -11 -30 -15 -17 -4 -30 -10 -30 -15 0 -5 -13 -11 -30 -15 -16 -4
-30 -10 -30 -15 0 -5 -14 -11 -30 -15 -17 -4 -30 -10 -30 -15 0 -5 -14 -11
-30 -15 -16 -4 -30 -10 -30 -15 0 -5 -13 -11 -30 -15 -16 -4 -30 -10 -30 -15
0 -4 -12 -11 -27 -15 -15 -3 -30 -10 -33 -14 -3 -4 -26 -15 -52 -24 l-48 -16
0 794 0 795 25 6 c14 3 25 10 25 14 0 5 13 11 30 15 16 4 30 10 30 15 0 5 14
11 30 15 17 4 30 10 30 15 0 5 14 11 30 15 17 4 30 11 30 16 0 5 11 11 25 15
14 3 25 10 25 14 0 5 14 11 30 15 17 4 30 10 30 15 0 5 14 11 30 15 17 4 30
10 30 15 0 5 14 11 30 15 17 4 30 10 30 15 0 5 14 11 30 15 17 4 30 10 30 15
0 5 14 11 30 15 17 4 30 11 30 16 0 5 11 11 25 15 14 3 25 10 25 14 0 5 14 11
30 15 17 4 30 10 30 15 0 5 14 11 30 15 17 4 30 10 30 15 0 5 14 11 30 15 17
4 30 10 30 15 0 5 14 11 30 15 17 4 30 10 30 14 0 4 18 13 40 20 22 6 40 16
40 21 0 4 14 11 30 15 17 4 30 10 30 15 0 5 14 11 30 15 17 4 30 10 30 15 0 5
14 11 30 15 17 4 30 10 30 15 0 5 14 11 30 15 17 4 30 10 30 15 0 5 14 11 30
15 17 4 30 10 30 15 0 4 11 11 25 14 14 4 25 10 25 15 0 5 14 12 30 16 17 4
30 10 30 15 0 5 14 11 30 15 17 4 30 10 30 15 0 5 14 11 30 15 17 4 30 10 30
15 0 5 14 11 30 15 17 4 30 10 30 15 0 5 14 11 30 15 17 4 30 10 30 15 0 5 14
11 30 15 17 4 30 11 30 16 0 5 11 11 25 15 14 3 25 10 25 14 0 5 14 11 30 15
17 4 30 10 30 15 0 5 14 11 30 15 17 4 30 10 30 15 0 5 14 11 30 15 17 4 30
10 30 15 0 5 14 11 30 15 17 4 30 10 30 15 0 5 14 11 30 15 17 4 30 11 30 16
0 5 11 11 25 15 14 3 25 10 25 14 0 5 14 11 30 15 17 4 30 10 30 15 0 5 14 11
30 15 17 4 30 10 30 15 0 5 14 11 30 15 17 4 30 10 30 15 0 5 14 11 30 15 17
4 30 10 30 15 0 5 14 11 30 15 17 4 30 11 30 16 0 5 11 11 25 15 14 3 25 10
25 14 0 5 14 11 30 15 17 4 30 10 30 15 0 5 14 11 30 15 17 4 30 10 30 15 0 5
14 11 30 15 17 4 30 10 30 15 0 5 14 11 30 15 17 4 30 10 30 15 0 5 14 11 30
15 17 4 30 11 30 16 0 5 11 11 25 15 14 3 25 10 25 14 0 5 14 11 30 15 17 4
30 10 30 15 0 5 14 11 30 15 17 4 30 10 30 15 0 5 13 11 30 15 17 4 30 10 30
14 0 5 20 14 45 21 25 7 45 16 45 20 0 4 11 11 25 14 14 4 25 10 25 15 0 5 14
12 30 16 17 4 30 10 30 15 0 5 14 11 30 15 17 4 30 10 30 15 0 5 14 11 30 15
17 4 30 10 30 15 0 5 14 11 30 15 17 4 30 10 30 15 0 5 13 11 30 15 17 4 30
10 30 15 0 4 11 11 25 14 14 4 25 10 25 15 0 5 14 12 30 16 17 4 30 10 30 15
0 5 14 11 30 15 17 4 30 10 30 15 0 5 14 11 30 15 17 4 30 10 30 15 0 5 14 11
30 15 17 4 30 10 30 15 0 5 14 11 30 15 17 4 30 10 30 15 0 4 11 11 25 14 14
4 25 10 25 15 0 5 13 12 30 16 16 4 30 10 30 15 0 5 14 11 30 15 17 4 30 10
30 15 0 5 14 11 30 15 17 4 30 10 30 15 0 5 14 11 30 15 17 4 30 10 30 15 0 5
14 11 30 15 17 4 30 10 30 15 0 4 11 11 25 14 14 4 25 10 25 15 0 5 14 12 30
16 17 4 30 10 30 15 0 5 14 11 30 15 17 4 30 10 30 15 0 5 14 11 30 15 17 4
30 10 30 15 0 5 14 11 30 15 17 4 30 10 30 15 0 5 14 11 30 15 17 4 30 10 30
15 0 4 11 11 25 14 14 4 25 10 25 15 0 5 14 12 30 16 17 4 30 10 30 15 0 5 14
11 30 15 17 4 30 10 30 15 0 5 14 11 30 15 17 4 30 10 30 15 0 5 14 11 30 15
17 4 30 10 30 15 0 5 14 11 30 15 17 4 30 10 30 15 0 4 11 11 25 14 14 4 25
10 25 15 0 5 14 12 30 16 17 4 30 10 30 15 0 5 14 11 30 15 17 4 30 10 30 14
0 5 20 14 45 21 25 7 45 16 45 21 0 4 14 10 30 14 17 4 30 10 30 15 0 5 14 11
30 15 17 4 30 10 30 15 0 4 11 11 25 14 14 4 25 10 25 15 0 5 14 12 30 16 17
4 30 10 30 15 0 5 14 11 30 15 17 4 30 10 30 15 0 5 14 11 30 15 17 4 30 10
30 15 0 5 14 11 30 15 17 4 30 10 30 15 0 5 14 11 30 15 17 4 30 10 30 15 0 4
11 11 25 14 14 4 25 10 25 15 0 5 14 12 30 16 17 4 30 10 30 15 0 5 14 11 30
15 17 4 30 10 30 15 0 5 14 11 30 15 17 4 30 10 30 15 0 5 14 11 30 15 17 4
30 10 30 15 0 5 14 11 30 15 17 4 30 10 30 15 0 4 11 11 25 14 14 4 25 10 25
15 0 5 14 12 30 16 17 4 30 10 30 15 0 5 14 11 30 15 17 4 30 10 30 15 0 5 14
11 30 15 17 4 30 10 30 15 0 5 14 11 30 15 17 4 30 10 30 15 0 5 14 11 30 15
17 4 30 10 30 15 0 4 11 11 25 14 14 4 25 10 25 15 0 5 14 12 30 16 17 4 30
10 30 15 0 5 14 11 30 15 17 4 30 10 30 15 0 5 14 11 30 15 17 4 30 10 30 15
0 5 14 11 30 15 17 4 30 10 30 15 0 5 14 11 30 15 17 4 30 10 30 15 0 4 11 11
25 14 14 4 25 10 25 15 0 5 14 12 30 16 17 4 30 10 30 15 0 5 14 11 30 15 17
4 30 10 30 15 0 5 14 11 30 15 17 4 30 10 30 15 0 5 14 11 30 15 17 4 30 10
30 15 0 5 14 11 30 15 17 4 30 11 30 16 0 5 6 9 14 9 8 0 21 6 28 14 8 8 40
22 71 32 55 17 59 17 114 0 31 -10 63 -24 71 -32 7 -8 20 -14 28 -14 8 0 14
-4 14 -9 0 -5 14 -12 30 -16 17 -4 30 -10 30 -15 0 -5 14 -11 30 -15 17 -4 30
-10 30 -15 0 -5 14 -11 30 -15 17 -4 30 -10 30 -15 0 -5 14 -11 30 -15 17 -4
30 -10 30 -15 0 -5 14 -11 30 -15 17 -4 30 -11 30 -16 0 -5 11 -11 25 -15 14
-3 25 -10 25 -14 0 -5 14 -11 30 -15 17 -4 30 -10 30 -15 0 -5 14 -11 30 -15
17 -4 30 -10 30 -15 0 -5 14 -11 30 -15 17 -4 30 -10 30 -15 0 -5 14 -11 30
-15 17 -4 30 -10 30 -15 0 -5 14 -11 30 -15 17 -4 30 -11 30 -16 0 -5 11 -11
25 -15 14 -3 25 -10 25 -14 0 -5 14 -11 30 -15 17 -4 30 -10 30 -15 0 -5 14
-11 30 -15 17 -4 30 -10 30 -15 0 -5 14 -11 30 -15 17 -4 30 -10 30 -15 0 -5
14 -11 30 -15 17 -4 30 -10 30 -15 0 -5 14 -11 30 -15 17 -4 30 -11 30 -16 0
-5 11 -11 25 -15 14 -3 25 -10 25 -14 0 -5 14 -11 30 -15 17 -4 30 -10 30 -15
0 -5 14 -11 30 -15 17 -4 30 -10 30 -15 0 -5 14 -11 30 -15 17 -4 30 -10 30
-15 0 -5 14 -11 30 -15 17 -4 30 -10 30 -15 0 -5 14 -11 30 -15 17 -4 30 -11
30 -16 0 -5 11 -11 25 -15 14 -3 25 -10 25 -14 0 -5 14 -11 30 -15 17 -4 30
-10 30 -15 0 -5 14 -11 30 -15 17 -4 30 -10 30 -15 0 -5 14 -11 30 -15 17 -4
30 -10 30 -15 0 -5 14 -11 30 -15 17 -4 30 -10 30 -15 0 -5 14 -11 30 -15 17
-4 30 -11 30 -16 0 -5 11 -11 25 -15 14 -3 25 -10 25 -14 0 -5 14 -11 30 -15
17 -4 30 -10 30 -15 0 -5 14 -11 30 -15 17 -4 30 -10 30 -14 0 -5 20 -14 45
-21 25 -7 45 -16 45 -21 0 -4 14 -10 30 -14 17 -4 30 -10 30 -15 0 -5 14 -11
30 -15 17 -4 30 -11 30 -16 0 -5 11 -11 25 -15 14 -3 25 -10 25 -14 0 -5 14
-11 30 -15 17 -4 30 -10 30 -15 0 -5 14 -11 30 -15 17 -4 30 -10 30 -15 0 -5
14 -11 30 -15 17 -4 30 -10 30 -15 0 -5 14 -11 30 -15 17 -4 30 -10 30 -15 0
-5 14 -11 30 -15 17 -4 30 -11 30 -16 0 -5 11 -11 25 -15 14 -3 25 -10 25 -14
0 -5 14 -11 30 -15 17 -4 30 -10 30 -15 0 -5 14 -11 30 -15 17 -4 30 -10 30
-15 0 -5 14 -11 30 -15 17 -4 30 -10 30 -15 0 -5 14 -11 30 -15 17 -4 30 -10
30 -15 0 -5 14 -11 30 -15 17 -4 30 -11 30 -16 0 -5 11 -11 25 -15 14 -3 25
-10 25 -14 0 -5 14 -11 30 -15 17 -4 30 -10 30 -15 0 -5 14 -11 30 -15 17 -4
30 -10 30 -15 0 -5 14 -11 30 -15 17 -4 30 -10 30 -15 0 -5 14 -11 30 -15 17
-4 30 -10 30 -15 0 -5 14 -11 30 -15 17 -4 30 -11 30 -16 0 -5 11 -11 25 -15
14 -3 25 -10 25 -14 0 -5 14 -11 30 -15 17 -4 30 -10 30 -15 0 -5 14 -11 30
-15 17 -4 30 -10 30 -15 0 -5 14 -11 30 -15 17 -4 30 -10 30 -15 0 -5 14 -11
30 -15 17 -4 30 -10 30 -15 0 -5 14 -11 30 -15 17 -4 30 -11 30 -16 0 -5 11
-11 25 -15 14 -3 25 -10 25 -14 0 -5 14 -11 30 -15 17 -4 30 -10 30 -15 0 -5
14 -11 30 -15 17 -4 30 -10 30 -15 0 -5 14 -11 30 -15 17 -4 30 -10 30 -15 0
-5 14 -11 30 -15 17 -4 30 -10 30 -15 0 -5 14 -11 30 -15 17 -4 30 -11 30 -16
0 -5 11 -11 25 -15 14 -3 25 -10 25 -14 0 -4 20 -13 45 -20 25 -7 45 -16 45
-21 0 -4 14 -10 30 -14 17 -4 30 -10 30 -15 0 -5 14 -11 30 -15 17 -4 30 -10
30 -15 0 -5 14 -11 30 -15 17 -4 30 -10 30 -15 0 -4 11 -11 25 -14 14 -4 25
-10 25 -15 0 -5 14 -12 30 -16 17 -4 30 -10 30 -15 0 -5 14 -11 30 -15 17 -4
30 -10 30 -15 0 -5 14 -11 30 -15 17 -4 30 -10 30 -15 0 -5 14 -11 30 -15 17
-4 30 -10 30 -15 0 -5 14 -11 30 -15 17 -4 30 -10 30 -15 0 -4 11 -11 25 -14
14 -4 25 -10 25 -15 0 -5 14 -12 30 -16 17 -4 30 -10 30 -15 0 -5 14 -11 30
-15 17 -4 30 -10 30 -15 0 -5 14 -11 30 -15 17 -4 30 -10 30 -15 0 -5 14 -11
30 -15 17 -4 30 -10 30 -15 0 -5 14 -11 30 -15 17 -4 30 -10 30 -15 0 -4 11
-11 25 -14 14 -4 25 -10 25 -15 0 -5 14 -12 30 -16 17 -4 30 -10 30 -15 0 -5
14 -11 30 -15 17 -4 30 -10 30 -15 0 -5 14 -11 30 -15 17 -4 30 -10 30 -15 0
-5 14 -11 30 -15 17 -4 30 -10 30 -15 0 -5 14 -11 30 -15 17 -4 30 -10 30 -15
0 -4 11 -11 25 -14 14 -4 25 -10 25 -15 0 -5 14 -12 30 -16 17 -4 30 -10 30
-15 0 -5 14 -11 30 -15 17 -4 30 -10 30 -15 0 -5 14 -11 30 -15 17 -4 30 -10
30 -15 0 -5 14 -11 30 -15 17 -4 30 -10 30 -15 0 -5 14 -11 30 -15 17 -4 30
-10 30 -15 0 -5 14 -11 30 -15 17 -4 30 -11 30 -16 0 -5 11 -11 25 -15 14 -3
25 -10 25 -14 0 -5 14 -11 30 -15 17 -4 30 -10 30 -15 0 -5 14 -11 30 -15 17
-4 30 -10 30 -15 0 -5 14 -11 30 -15 17 -4 30 -10 30 -15 0 -5 14 -11 30 -15
17 -4 30 -10 30 -15 0 -5 14 -11 30 -15 17 -4 30 -11 30 -15 0 -5 18 -15 40
-21 22 -7 40 -16 40 -20 0 -4 14 -10 30 -14 17 -4 30 -10 30 -15 0 -5 14 -11
30 -15 17 -4 30 -10 30 -15 0 -5 14 -11 30 -15 17 -4 30 -10 30 -15 0 -5 14
-11 30 -15 17 -4 30 -10 30 -15 0 -4 11 -11 25 -14 14 -4 25 -10 25 -15 0 -5
14 -12 30 -16 17 -4 30 -10 30 -15 0 -5 14 -11 30 -15 17 -4 30 -10 30 -15 0
-5 14 -11 30 -15 17 -4 30 -10 30 -15 0 -5 14 -11 30 -15 17 -4 30 -10 30 -15
0 -5 14 -11 30 -15 17 -4 30 -10 30 -15 0 -4 11 -11 25 -14 14 -4 25 -10 25
-15 0 -5 14 -12 30 -16 17 -4 30 -10 30 -15 0 -5 14 -11 30 -15 17 -4 30 -10
30 -15 0 -4 12 -11 27 -15 15 -3 30 -10 33 -14 3 -5 15 -11 28 -15 l22 -7 0
501 c0 493 0 502 -20 507 -11 3 -20 9 -20 13 0 5 -13 11 -30 15 -16 4 -30 10
-30 15 0 5 -13 11 -30 15 -16 4 -30 10 -30 15 0 5 -13 11 -30 15 -16 4 -30 10
-30 15 0 5 -13 11 -30 15 -16 4 -30 10 -30 15 0 5 -13 11 -30 15 -16 4 -30 10
-30 15 0 5 -13 11 -30 15 -16 4 -30 10 -30 15 0 5 -13 11 -30 15 -16 4 -30 10
-30 15 0 5 -13 11 -30 15 -16 4 -30 10 -30 15 0 5 -13 11 -30 15 -16 4 -30 10
-30 15 0 5 -13 11 -30 15 -16 4 -30 10 -30 15 0 5 -13 11 -30 15 -16 4 -30 10
-30 15 0 5 -13 11 -30 15 -16 4 -30 10 -30 15 0 4 -11 11 -25 14 -14 4 -25 10
-25 15 0 5 -14 12 -30 16 -16 4 -30 10 -30 15 0 5 -13 11 -30 15 -16 4 -30 10
-30 15 0 5 -13 11 -30 15 -16 4 -30 10 -30 15 0 5 -13 11 -30 15 -16 4 -30 10
-30 14 0 5 -20 14 -45 21 -25 7 -45 16 -45 21 0 4 -13 10 -30 14 -16 4 -30 10
-30 15 0 5 -13 11 -30 15 -16 4 -30 10 -30 15 0 5 -13 11 -30 15 -16 4 -30 10
-30 15 0 5 -13 11 -30 15 -16 4 -30 10 -30 15 0 5 -13 11 -30 15 -16 4 -30 10
-30 15 0 5 -13 11 -30 15 -16 4 -30 10 -30 15 0 5 -13 11 -30 15 -16 4 -30 10
-30 15 0 5 -13 11 -30 15 -16 4 -30 10 -30 15 0 5 -13 11 -30 15 -16 4 -30 10
-30 15 0 5 -13 11 -30 15 -16 4 -30 10 -30 15 0 5 -13 11 -30 15 -16 4 -30 10
-30 15 0 5 -13 11 -30 15 -16 4 -30 10 -30 15 0 5 -13 11 -30 15 -16 4 -30 11
-30 16 0 5 -11 11 -25 15 -14 3 -25 10 -25 14 0 5 -13 11 -30 15 -16 4 -30 10
-30 15 0 5 -13 11 -30 15 -16 4 -30 10 -30 15 0 5 -13 11 -30 15 -16 4 -30 10
-30 15 0 5 -13 11 -30 15 -16 4 -30 10 -30 15 0 5 -13 11 -30 15 -16 4 -30 10
-30 15 0 5 -13 11 -30 15 -16 4 -30 10 -30 15 0 5 -13 11 -30 15 -16 4 -30 10
-30 15 0 5 -13 11 -30 15 -16 4 -30 10 -30 15 0 5 -13 11 -30 15 -16 4 -30 10
-30 15 0 5 -13 11 -30 15 -16 4 -30 10 -30 15 0 5 -13 11 -30 15 -16 4 -30 10
-30 15 0 5 -13 11 -30 15 -16 4 -30 10 -30 15 0 5 -13 11 -30 15 -16 4 -30 10
-30 15 0 5 -13 11 -30 15 -16 4 -30 10 -30 15 0 5 -13 11 -30 15 -16 4 -30 10
-30 15 0 5 -13 11 -30 15 -16 4 -30 10 -30 15 0 5 -13 11 -30 15 -16 4 -30 10
-30 15 0 4 -11 11 -25 14 -14 4 -25 10 -25 15 0 5 -13 12 -30 16 -16 4 -30 10
-30 14 0 5 -20 14 -45 21 -25 7 -45 16 -45 21 0 4 -13 10 -30 14 -16 4 -30 10
-30 15 0 5 -13 11 -30 15 -16 4 -30 10 -30 15 0 5 -13 11 -30 15 -16 4 -30 10
-30 15 0 5 -13 11 -30 15 -16 4 -30 10 -30 15 0 5 -13 11 -30 15 -16 4 -30 10
-30 15 0 5 -13 11 -30 15 -16 4 -30 10 -30 15 0 5 -13 11 -30 15 -16 4 -30 10
-30 15 0 5 -13 11 -30 15 -16 4 -30 10 -30 15 0 5 -13 11 -30 15 -16 4 -30 10
-30 15 0 5 -13 11 -30 15 -16 4 -30 10 -30 15 0 5 -13 11 -30 15 -16 4 -30 10
-30 15 0 5 -13 11 -30 15 -16 4 -30 10 -30 15 0 5 -13 11 -30 15 -16 4 -30 10
-30 15 0 5 -13 11 -30 15 -16 4 -30 10 -30 15 0 5 -13 11 -30 15 -16 4 -30 10
-30 15 0 5 -13 11 -30 15 -16 4 -30 11 -30 16 0 5 -11 11 -25 15 -14 3 -25 10
-25 14 0 5 -13 11 -30 15 -16 4 -30 10 -30 15 0 5 -13 11 -30 15 -16 4 -30 10
-30 15 0 5 -13 11 -30 15 -16 4 -30 10 -30 15 0 5 -13 11 -30 15 -16 4 -30 10
-30 15 0 5 -13 11 -30 15 -16 4 -30 10 -30 15 0 5 -13 11 -30 15 -16 4 -30 10
-30 15 0 5 -13 11 -30 15 -16 4 -30 10 -30 15 0 5 -13 11 -30 15 -16 4 -30 10
-30 15 0 5 -13 11 -30 15 -16 4 -30 10 -30 15 0 5 -13 11 -30 15 -16 4 -30 10
-30 15 0 5 -13 11 -30 15 -16 4 -30 10 -30 15 0 5 -13 11 -30 15 -16 4 -30 10
-30 15 0 5 -13 11 -30 15 -16 4 -30 10 -30 15 0 5 -13 11 -30 15 -16 4 -30 10
-30 15 0 5 -13 11 -30 15 -16 4 -30 10 -30 15 0 5 -13 11 -30 15 -16 4 -30 10
-30 14 0 5 -20 14 -45 21 -25 7 -45 16 -45 20 0 4 -11 11 -25 14 -14 4 -25 10
-25 15 0 5 -13 12 -30 16 -16 4 -30 10 -30 15 0 5 -13 11 -30 15 -16 4 -30 10
-30 15 0 5 -13 11 -30 15 -16 4 -30 10 -30 15 0 5 -13 11 -30 15 -16 4 -30 10
-30 15 0 5 -13 11 -30 15 -16 4 -30 10 -30 15 0 5 -13 11 -30 15 -16 4 -30 10
-30 15 0 5 -13 11 -30 15 -16 4 -30 10 -30 15 0 5 -13 11 -30 15 -16 4 -30 10
-30 15 0 5 -13 11 -30 15 -16 4 -30 10 -30 15 0 5 -13 11 -30 15 -16 4 -30 10
-30 15 0 5 -13 11 -30 15 -16 4 -30 10 -30 15 0 5 -13 11 -30 15 -16 4 -30 10
-30 15 0 5 -13 11 -30 15 -16 4 -30 10 -30 15 0 5 -13 11 -30 15 -16 4 -30 10
-30 15 0 5 -13 11 -30 15 -16 4 -30 10 -30 15 0 5 -13 11 -30 15 -16 4 -30 10
-30 15 0 5 -13 11 -30 15 -16 4 -30 10 -30 15 0 5 -13 11 -30 15 -16 4 -30 11
-30 16 0 5 -11 11 -25 15 -14 3 -25 10 -25 14 0 5 -13 11 -30 15 -16 4 -30 10
-30 15 0 5 -13 11 -30 15 -16 4 -30 10 -30 15 0 5 -13 11 -30 15 -16 4 -30 10
-30 15 0 5 -13 11 -30 15 -16 4 -30 10 -30 15 0 5 -13 11 -30 15 -16 4 -30 10
-30 15 0 5 -13 11 -30 15 -16 4 -30 10 -30 15 0 5 -13 11 -30 15 -16 4 -30 10
-30 15 0 5 -13 11 -30 15 -16 4 -30 10 -30 15 0 5 -13 11 -30 15 -16 4 -30 10
-30 15 0 4 -12 11 -27 15 -15 3 -31 12 -35 18 -9 15 -87 15 -96 0 -4 -6 -20
-15 -35 -18 -15 -4 -27 -11 -27 -15 0 -5 -13 -11 -30 -15 -16 -4 -30 -10 -30
-15 0 -5 -13 -11 -30 -15 -16 -4 -30 -10 -30 -15 0 -5 -13 -11 -30 -15 -16 -4
-30 -10 -30 -15 0 -5 -13 -11 -30 -15 -16 -4 -30 -10 -30 -15 0 -5 -13 -11
-30 -15 -16 -4 -30 -10 -30 -15 0 -5 -13 -11 -30 -15 -16 -4 -30 -10 -30 -15
0 -5 -13 -11 -30 -15 -16 -4 -30 -10 -30 -15 0 -5 -13 -11 -30 -15 -16 -4 -30
-10 -30 -15 0 -5 -13 -11 -30 -15 -16 -4 -30 -10 -30 -15 0 -4 -11 -11 -25
-14 -14 -4 -25 -10 -25 -15 0 -5 -13 -12 -30 -16 -16 -4 -30 -10 -30 -15 0 -5
-13 -11 -30 -15 -16 -4 -30 -10 -30 -15 0 -5 -13 -11 -30 -15 -16 -4 -30 -10
-30 -15 0 -5 -13 -11 -30 -15 -16 -4 -30 -10 -30 -15 0 -5 -13 -11 -30 -15
-16 -4 -30 -10 -30 -15 0 -5 -13 -11 -30 -15 -17 -4 -30 -10 -30 -15 0 -5 -13
-11 -30 -15 -16 -4 -30 -10 -30 -15 0 -5 -13 -11 -30 -15 -16 -4 -30 -10 -30
-15 0 -5 -13 -11 -30 -15 -16 -4 -30 -10 -30 -15 0 -5 -13 -11 -30 -15 -16 -4
-30 -10 -30 -15 0 -5 -13 -11 -30 -15 -16 -4 -30 -10 -30 -15 0 -5 -14 -11
-30 -15 -17 -4 -30 -10 -30 -15 0 -5 -13 -11 -30 -15 -16 -4 -30 -10 -30 -15
0 -5 -13 -11 -30 -15 -16 -4 -30 -10 -30 -15 0 -5 -13 -11 -30 -15 -16 -4 -30
-10 -30 -15 0 -5 -13 -11 -30 -15 -16 -4 -30 -10 -30 -15 0 -5 -13 -11 -30
-15 -16 -4 -30 -10 -30 -15 0 -5 -13 -11 -30 -15 -16 -4 -30 -11 -30 -16 0 -5
-11 -11 -25 -15 -14 -3 -25 -10 -25 -14 0 -4 -20 -13 -45 -20 -25 -7 -45 -16
-45 -21 0 -4 -13 -10 -30 -14 -16 -4 -30 -10 -30 -15 0 -5 -13 -11 -30 -15
-16 -4 -30 -10 -30 -15 0 -5 -13 -11 -30 -15 -16 -4 -30 -10 -30 -15 0 -5 -14
-11 -30 -15 -16 -4 -30 -10 -30 -15 0 -5 -13 -11 -30 -15 -16 -4 -30 -10 -30
-15 0 -5 -13 -11 -30 -15 -16 -4 -30 -10 -30 -15 0 -5 -13 -11 -30 -15 -16 -4
-30 -10 -30 -15 0 -5 -13 -11 -30 -15 -16 -4 -30 -10 -30 -15 0 -5 -13 -11
-30 -15 -16 -4 -30 -10 -30 -15 0 -5 -13 -11 -30 -15 -16 -4 -30 -10 -30 -15
0 -5 -14 -11 -30 -15 -16 -4 -30 -10 -30 -15 0 -5 -13 -11 -30 -15 -16 -4 -30
-10 -30 -15 0 -5 -13 -11 -30 -15 -16 -4 -30 -10 -30 -15 0 -5 -13 -11 -30
-15 -16 -4 -30 -10 -30 -15 0 -5 -13 -11 -30 -15 -16 -4 -30 -10 -30 -15 0 -5
-13 -11 -30 -15 -16 -4 -30 -10 -30 -15 0 -4 -11 -11 -25 -14 -14 -4 -25 -10
-25 -15 0 -5 -13 -12 -30 -16 -16 -4 -30 -10 -30 -15 0 -5 -13 -11 -30 -15
-16 -4 -30 -10 -30 -15 0 -5 -13 -11 -30 -15 -16 -4 -30 -10 -30 -15 0 -5 -13
-11 -30 -15 -16 -4 -30 -10 -30 -15 0 -5 -13 -11 -30 -15 -16 -4 -30 -10 -30
-15 0 -5 -13 -11 -30 -15 -16 -4 -30 -10 -30 -15 0 -5 -13 -11 -30 -15 -16 -4
-30 -10 -30 -15 0 -5 -13 -11 -30 -15 -16 -4 -30 -10 -30 -15 0 -5 -13 -11
-30 -15 -16 -4 -30 -10 -30 -15 0 -5 -13 -11 -30 -15 -16 -4 -30 -10 -30 -15
0 -5 -13 -11 -30 -15 -16 -4 -30 -10 -30 -15 0 -5 -13 -11 -30 -15 -16 -4 -30
-10 -30 -15 0 -5 -13 -11 -30 -15 -16 -4 -30 -10 -30 -15 0 -5 -13 -11 -30
-15 -16 -4 -30 -10 -30 -15 0 -5 -13 -11 -30 -15 -16 -4 -30 -10 -30 -15 0 -5
-13 -11 -30 -15 -16 -4 -30 -10 -30 -14 0 -5 -20 -14 -45 -21 -25 -7 -45 -16
-45 -21 0 -4 -13 -10 -30 -14 -16 -4 -30 -11 -30 -16 0 -5 -11 -11 -25 -15
-14 -3 -25 -10 -25 -14 0 -5 -13 -11 -30 -15 -16 -4 -30 -10 -30 -15 0 -5 -13
-11 -30 -15 -16 -4 -30 -10 -30 -15 0 -5 -13 -11 -30 -15 -16 -4 -30 -10 -30
-15 0 -5 -13 -11 -30 -15 -16 -4 -30 -10 -30 -15 0 -5 -13 -11 -30 -15 -16 -4
-30 -10 -30 -15 0 -5 -13 -11 -30 -15 -16 -4 -30 -10 -30 -15 0 -5 -13 -11
-30 -15 -16 -4 -30 -10 -30 -15 0 -5 -13 -11 -30 -15 -16 -4 -30 -10 -30 -15
0 -5 -13 -11 -30 -15 -16 -4 -30 -10 -30 -15 0 -5 -13 -11 -30 -15 -16 -4 -30
-10 -30 -15 0 -5 -13 -11 -30 -15 -16 -4 -30 -10 -30 -15 0 -5 -13 -11 -30
-15 -16 -4 -30 -10 -30 -15 0 -5 -13 -11 -30 -15 -16 -4 -30 -10 -30 -15 0 -5
-13 -11 -30 -15 -16 -4 -30 -10 -30 -15 0 -5 -13 -11 -30 -15 -16 -4 -30 -10
-30 -15 0 -5 -13 -11 -30 -15 -16 -4 -30 -10 -30 -15 0 -5 -13 -11 -30 -15
-16 -4 -30 -10 -30 -15 0 -4 -11 -11 -25 -14 -14 -4 -25 -10 -25 -15 0 -5 -13
-12 -30 -16 -16 -4 -30 -10 -30 -15 0 -5 -13 -11 -30 -15 -16 -4 -30 -10 -30
-15 0 -5 -13 -11 -30 -15 -16 -4 -30 -10 -30 -15 0 -5 -13 -11 -30 -15 -16 -4
-30 -10 -30 -15 0 -5 -13 -11 -30 -15 -16 -4 -30 -10 -30 -15 0 -5 -13 -11
-30 -15 -16 -4 -30 -10 -30 -15 0 -5 -13 -11 -30 -15 -16 -4 -30 -10 -30 -15
0 -5 -13 -11 -30 -15 -16 -4 -30 -10 -30 -15 0 -5 -13 -11 -30 -15 -16 -4 -30
-10 -30 -15 0 -5 -13 -11 -30 -15 -16 -4 -30 -10 -30 -15 0 -5 -13 -11 -30
-15 -16 -4 -30 -10 -30 -15 0 -5 -13 -11 -30 -15 -16 -4 -30 -10 -30 -15 0 -5
-13 -11 -30 -15 -16 -4 -30 -10 -30 -14 0 -5 -20 -14 -45 -21 -25 -7 -45 -16
-45 -21 0 -4 -13 -10 -30 -14 -16 -4 -30 -10 -30 -15 0 -5 -14 -11 -30 -15
-17 -4 -30 -10 -30 -15 0 -5 -13 -11 -30 -15 -16 -4 -30 -10 -30 -15 0 -5 -13
-11 -30 -15 -16 -4 -30 -11 -30 -16 0 -5 -11 -11 -25 -15 -14 -3 -25 -10 -25
-14 0 -5 -13 -11 -30 -15 -16 -4 -30 -10 -30 -15 0 -5 -14 -11 -30 -15 -16 -4
-30 -10 -30 -15 0 -5 -13 -11 -30 -15 -16 -4 -30 -10 -30 -15 0 -5 -13 -11
-30 -15 -16 -4 -30 -10 -30 -15 0 -5 -13 -11 -30 -15 -16 -4 -30 -10 -30 -15
0 -5 -13 -11 -30 -15 -16 -4 -30 -10 -30 -15 0 -5 -13 -11 -30 -15 -16 -4 -30
-10 -30 -15 0 -5 -13 -11 -30 -15 -16 -4 -30 -10 -30 -15 0 -5 -13 -11 -30
-15 -16 -4 -30 -10 -30 -15 0 -5 -13 -11 -30 -15 -16 -4 -30 -10 -30 -15 0 -5
-13 -11 -30 -15 -16 -4 -30 -10 -30 -15 0 -5 -14 -11 -30 -15 -17 -4 -30 -10
-30 -15 0 -4 -9 -10 -20 -13 -20 -5 -20 0 -20 785 0 855 -3 809 54 824 14 3
26 10 26 14 0 5 13 11 30 15 16 4 30 10 30 15 0 5 14 11 30 15 17 4 30 10 30
15 0 4 11 11 25 14 14 4 25 10 25 15 0 5 14 12 30 16 17 4 30 10 30 15 0 5 13
11 30 15 17 4 30 10 30 15 0 5 14 11 30 15 17 4 30 10 30 15 0 5 13 11 30 15
16 4 30 10 30 15 0 5 14 11 30 15 17 4 30 10 30 15 0 4 11 11 25 14 14 4 25
10 25 15 0 5 14 12 30 16 17 4 30 10 30 15 0 5 14 11 30 15 17 4 30 10 30 15
0 5 14 11 30 15 16 4 30 10 30 15 0 5 14 11 30 15 17 4 30 10 30 15 0 5 14 11
30 15 17 4 30 10 30 15 0 4 11 11 25 14 14 4 25 10 25 15 0 5 14 12 30 16 17
4 30 10 30 15 0 5 14 11 30 15 17 4 30 10 30 15 0 5 14 11 30 15 17 4 30 10
30 15 0 5 14 11 30 15 17 4 30 10 30 15 0 5 14 11 30 15 17 4 30 10 30 15 0 4
11 11 25 14 14 4 25 10 25 15 0 5 14 12 30 16 17 4 30 10 30 15 0 5 14 11 30
15 17 4 30 10 30 15 0 5 14 11 30 15 17 4 30 10 30 15 0 5 14 11 30 15 17 4
30 10 30 15 0 5 14 11 30 15 17 4 30 10 30 15 0 5 14 11 30 15 17 4 30 11 30
16 0 5 11 11 25 15 14 3 25 10 25 14 0 5 14 11 30 15 17 4 30 10 30 15 0 5 14
11 30 15 17 4 30 10 30 15 0 5 14 11 30 15 17 4 30 10 30 14 0 5 20 14 45 21
25 7 45 16 45 20 0 4 11 11 25 14 14 4 25 10 25 15 0 5 14 12 30 16 17 4 30
10 30 15 0 5 13 11 30 15 17 4 30 10 30 15 0 5 13 11 30 15 17 4 30 10 30 15
0 5 14 11 30 15 17 4 30 10 30 15 0 5 14 11 30 15 17 4 30 10 30 15 0 4 11 11
25 14 14 4 25 10 25 15 0 5 14 12 30 16 17 4 30 10 30 15 0 5 14 11 30 15 17
4 30 10 30 15 0 5 14 11 30 15 17 4 30 10 30 15 0 5 14 11 30 15 17 4 30 10
30 15 0 5 14 11 30 15 17 4 30 10 30 15 0 4 11 11 25 14 14 4 25 10 25 15 0 5
14 12 30 16 17 4 30 10 30 15 0 5 14 11 30 15 17 4 30 10 30 15 0 5 14 11 30
15 17 4 30 10 30 15 0 5 14 11 30 15 17 4 30 10 30 15 0 5 14 11 30 15 17 4
30 10 30 15 0 4 11 11 25 14 14 4 25 10 25 15 0 5 14 12 30 16 17 4 30 10 30
15 0 5 14 11 30 15 17 4 30 10 30 15 0 5 13 11 30 15 16 4 30 10 30 15 0 5 14
11 30 15 17 4 30 10 30 15 0 5 14 11 30 15 17 4 30 10 30 15 0 4 11 11 25 14
14 4 25 10 25 15 0 5 14 12 30 16 17 4 30 10 30 15 0 5 14 11 30 15 17 4 30
10 30 15 0 5 14 11 30 15 17 4 30 10 30 15 0 5 14 11 30 15 17 4 30 10 30 15
0 5 14 11 30 15 17 4 30 10 30 15 0 4 11 11 25 14 14 4 25 10 25 15 0 5 14 12
30 16 17 4 30 10 30 15 0 5 14 11 30 15 17 4 30 10 30 15 0 5 14 11 30 15 17
4 30 10 30 14 0 5 20 14 45 21 25 7 45 16 45 21 0 4 14 10 30 14 17 4 30 11
30 16 0 5 11 11 25 15 14 3 25 10 25 14 0 5 14 11 30 15 17 4 30 10 30 15 0 5
14 11 30 15 17 4 30 10 30 15 0 5 14 11 30 15 17 4 30 10 30 15 0 5 14 11 30
15 17 4 30 10 30 15 0 5 14 11 30 15 17 4 30 11 30 16 0 5 11 11 25 15 14 3
25 10 25 14 0 5 14 11 30 15 17 4 30 10 30 15 0 5 14 11 30 15 17 4 30 10 30
15 0 5 14 11 30 15 17 4 30 10 30 15 0 5 14 11 30 15 17 4 30 10 30 15 0 5 14
11 30 15 17 4 30 11 30 16 0 5 11 11 25 15 14 3 25 10 25 14 0 5 14 11 30 15
17 4 30 10 30 15 0 5 14 11 30 15 17 4 30 10 30 15 0 5 14 11 30 15 17 4 30
10 30 15 0 5 14 11 30 15 17 4 30 10 30 15 0 5 14 11 30 15 17 4 30 10 30 15
0 4 11 11 25 14 14 4 25 10 25 15 0 5 14 12 30 16 17 4 30 10 30 15 0 5 14 11
30 15 17 4 30 10 30 15 0 5 14 11 30 15 17 4 30 10 30 15 0 5 14 11 30 15 17
4 30 10 30 15 0 5 14 11 30 15 17 4 30 10 30 15 0 4 11 11 25 14 14 4 25 10
25 15 0 5 14 12 30 16 17 4 30 10 30 15 0 5 14 11 30 15 17 4 30 10 30 15 0 5
14 11 30 15 17 4 30 10 30 15 0 5 14 11 30 15 17 4 30 10 30 15 0 5 14 11 30
15 17 4 30 10 30 15 0 4 11 11 25 14 14 4 25 10 25 15 0 5 14 12 30 16 17 4
30 10 30 14 0 5 20 14 45 21 25 7 45 16 45 21 0 4 14 10 30 14 17 4 30 10 30
15 0 5 14 11 30 15 17 4 30 10 30 15 0 5 14 11 30 15 17 4 30 11 30 16 0 5 11
11 25 15 14 3 25 10 25 14 0 5 14 11 30 15 17 4 30 10 30 15 0 5 14 11 30 15
17 4 30 10 30 15 0 5 14 11 30 15 17 4 30 10 30 15 0 5 14 11 30 15 17 4 30
10 30 15 0 5 14 11 30 15 17 4 30 11 30 16 0 5 11 11 25 15 14 3 25 10 25 14
0 5 14 11 30 15 17 4 30 10 30 15 0 5 14 11 30 15 17 4 30 10 30 15 0 5 14 11
30 15 17 4 30 10 30 15 0 5 14 11 30 15 17 4 30 10 30 15 0 5 14 11 30 15 17
4 30 11 30 16 0 5 11 11 25 15 14 3 25 10 25 14 0 4 20 13 45 20 36 10 54 10
90 0 25 -7 45 -16 45 -20 0 -4 11 -11 25 -14 14 -4 25 -10 25 -15 0 -5 14 -12
30 -16 17 -4 30 -10 30 -15 0 -5 14 -11 30 -15 17 -4 30 -10 30 -15 0 -5 14
-11 30 -15 17 -4 30 -10 30 -15 0 -5 14 -11 30 -15 17 -4 30 -10 30 -15 0 -5
14 -11 30 -15 17 -4 30 -10 30 -15 0 -4 11 -11 25 -14 14 -4 25 -10 25 -15 0
-5 14 -12 30 -16 17 -4 30 -10 30 -15 0 -5 14 -11 30 -15 17 -4 30 -10 30 -15
0 -5 14 -11 30 -15 17 -4 30 -10 30 -15 0 -5 14 -11 30 -15 17 -4 30 -10 30
-15 0 -5 14 -11 30 -15 17 -4 30 -10 30 -15 0 -4 11 -11 25 -14 14 -4 25 -10
25 -15 0 -5 14 -12 30 -16 17 -4 30 -10 30 -15 0 -5 14 -11 30 -15 17 -4 30
-10 30 -15 0 -5 14 -11 30 -15 17 -4 30 -10 30 -14 0 -5 20 -14 45 -21 25 -7
45 -16 45 -21 0 -4 14 -10 30 -14 17 -4 30 -11 30 -16 0 -5 11 -11 25 -15 14
-3 25 -10 25 -14 0 -5 14 -11 30 -15 17 -4 30 -10 30 -15 0 -5 14 -11 30 -15
17 -4 30 -10 30 -15 0 -5 14 -11 30 -15 17 -4 30 -10 30 -15 0 -5 14 -11 30
-15 17 -4 30 -10 30 -15 0 -5 14 -11 30 -15 17 -4 30 -11 30 -16 0 -5 11 -11
25 -15 14 -3 25 -10 25 -14 0 -5 14 -11 30 -15 17 -4 30 -10 30 -15 0 -5 14
-11 30 -15 17 -4 30 -10 30 -15 0 -5 14 -11 30 -15 17 -4 30 -10 30 -15 0 -5
14 -11 30 -15 17 -4 30 -10 30 -15 0 -5 14 -11 30 -15 17 -4 30 -11 30 -16 0
-5 11 -11 25 -15 14 -3 25 -10 25 -14 0 -5 14 -11 30 -15 17 -4 30 -10 30 -15
0 -5 14 -11 30 -15 17 -4 30 -10 30 -15 0 -5 14 -11 30 -15 17 -4 30 -10 30
-15 0 -5 14 -11 30 -15 17 -4 30 -10 30 -15 0 -5 14 -11 30 -15 17 -4 30 -10
30 -15 0 -4 11 -11 25 -14 14 -4 25 -10 25 -15 0 -5 14 -12 30 -16 17 -4 30
-10 30 -15 0 -5 14 -11 30 -15 17 -4 30 -10 30 -15 0 -5 14 -11 30 -15 17 -4
30 -10 30 -15 0 -5 14 -11 30 -15 17 -4 30 -10 30 -15 0 -5 14 -11 30 -15 17
-4 30 -10 30 -15 0 -4 11 -11 25 -14 14 -4 25 -10 25 -15 0 -5 14 -12 30 -16
17 -4 30 -10 30 -15 0 -5 14 -11 30 -15 17 -4 30 -10 30 -15 0 -5 14 -11 30
-15 17 -4 30 -10 30 -15 0 -5 14 -11 30 -15 17 -4 30 -10 30 -15 0 -5 14 -11
30 -15 17 -4 30 -10 30 -15 0 -4 11 -11 25 -14 14 -4 25 -10 25 -15 0 -5 14
-12 30 -16 17 -4 30 -10 30 -14 0 -5 20 -14 45 -21 25 -7 45 -16 45 -21 0 -4
14 -10 30 -14 17 -4 30 -10 30 -15 0 -5 14 -11 30 -15 17 -4 30 -10 30 -15 0
-5 14 -11 30 -15 17 -4 30 -11 30 -16 0 -5 11 -11 25 -15 14 -3 25 -10 25 -14
0 -5 14 -11 30 -15 17 -4 30 -10 30 -15 0 -5 14 -11 30 -15 17 -4 30 -10 30
-15 0 -5 14 -11 30 -15 17 -4 30 -10 30 -15 0 -5 14 -11 30 -15 17 -4 30 -10
30 -15 0 -5 14 -11 30 -15 17 -4 30 -11 30 -16 0 -5 11 -11 25 -15 14 -3 25
-10 25 -14 0 -5 14 -11 30 -15 17 -4 30 -10 30 -15 0 -5 14 -11 30 -15 17 -4
30 -10 30 -15 0 -5 14 -11 30 -15 17 -4 30 -10 30 -15 0 -5 14 -11 30 -15 17
-4 30 -10 30 -15 0 -5 14 -11 30 -15 17 -4 30 -11 30 -16 0 -5 11 -11 25 -15
14 -3 25 -10 25 -14 0 -5 14 -11 30 -15 17 -4 30 -10 30 -15 0 -5 14 -11 30
-15 17 -4 30 -10 30 -15 0 -5 14 -11 30 -15 17 -4 30 -10 30 -15 0 -5 14 -11
30 -15 17 -4 30 -10 30 -15 0 -5 14 -11 30 -15 17 -4 30 -11 30 -16 0 -5 11
-11 25 -15 14 -3 25 -10 25 -14 0 -5 14 -11 30 -15 17 -4 30 -10 30 -15 0 -5
14 -11 30 -15 17 -4 30 -10 30 -15 0 -5 14 -11 30 -15 17 -4 30 -10 30 -15 0
-5 14 -11 30 -15 17 -4 30 -10 30 -15 0 -5 14 -11 30 -15 17 -4 30 -11 30 -16
0 -5 11 -11 25 -15 14 -3 25 -10 25 -14 0 -5 14 -11 30 -15 17 -4 30 -10 30
-15 0 -5 14 -11 30 -15 17 -4 30 -10 30 -15 0 -5 14 -11 30 -15 17 -4 30 -10
30 -15 0 -5 14 -11 30 -15 17 -4 30 -10 30 -15 0 -5 14 -11 30 -15 17 -4 30
-11 30 -16 0 -5 11 -11 25 -15 14 -3 25 -10 25 -14 0 -4 20 -13 45 -20 25 -7
45 -16 45 -21 0 -4 14 -10 30 -14 17 -4 30 -10 30 -15 0 -5 14 -11 30 -15 17
-4 30 -10 30 -15 0 -5 14 -11 30 -15 17 -4 30 -10 30 -15 0 -4 11 -11 25 -14
14 -4 25 -10 25 -15 0 -5 14 -12 30 -16 17 -4 30 -10 30 -15 0 -5 14 -11 30
-15 17 -4 30 -10 30 -15 0 -5 14 -11 30 -15 17 -4 30 -10 30 -15 0 -5 14 -11
30 -15 17 -4 30 -10 30 -15 0 -5 14 -11 30 -15 17 -4 30 -10 30 -15 0 -5 14
-11 30 -15 17 -4 30 -11 30 -16 0 -5 11 -11 25 -15 14 -3 25 -10 25 -14 0 -5
14 -11 30 -15 17 -4 30 -10 30 -15 0 -5 14 -11 30 -15 17 -4 30 -10 30 -15 0
-5 14 -11 30 -15 17 -4 30 -10 30 -15 0 -5 14 -11 30 -15 17 -4 30 -10 30 -15
0 -5 14 -11 30 -15 17 -4 30 -11 30 -16 0 -5 11 -11 25 -15 14 -3 25 -10 25
-14 0 -5 14 -11 30 -15 17 -4 30 -10 30 -15 0 -5 14 -11 30 -15 17 -4 30 -10
30 -15 0 -5 14 -11 30 -15 17 -4 30 -10 30 -15 0 -5 14 -11 30 -15 17 -4 30
-10 30 -15 0 -5 14 -11 30 -15 17 -4 30 -11 30 -16 0 -5 11 -11 25 -15 14 -3
25 -10 25 -14 0 -5 14 -11 30 -15 17 -4 30 -10 30 -15 0 -5 14 -11 30 -15 17
-4 30 -10 30 -15 0 -5 14 -11 30 -15 17 -4 30 -10 30 -15 0 -5 14 -11 30 -15
17 -4 30 -10 30 -15 0 -5 14 -11 30 -15 17 -4 30 -11 30 -16 0 -5 11 -11 25
-15 14 -3 25 -10 25 -14 0 -5 14 -11 30 -15 17 -4 30 -10 30 -15 0 -5 14 -11
30 -15 17 -4 30 -10 30 -15 0 -5 14 -11 30 -15 17 -4 30 -11 30 -16 0 -5 5 -9
10 -9 7 0 10 1583 10 4730 l0 4730 -7085 0 -7085 0 0 -7085z m7285 6691 c225
-76 397 -263 451 -491 25 -110 15 -276 -24 -381 -38 -103 -89 -184 -163 -256
-343 -335 -926 -213 -1102 232 -75 190 -59 417 42 593 88 155 263 281 445 323
96 22 253 13 351 -20z m-110 -1499 c78 -14 184 -96 224 -174 30 -60 54 -163
47 -205 -6 -36 -4 -39 36 -64 60 -37 124 -100 162 -159 30 -46 76 -173 76
-209 0 -9 8 -16 18 -16 37 0 57 -37 57 -105 0 -71 -20 -105 -62 -105 -12 0
-24 -4 -24 -10 -3 -19 -5 -25 -23 -60 -20 -39 -55 -80 -67 -80 -5 0 -28 -20
-53 -43 -67 -65 -217 -135 -361 -167 -27 -6 -55 -16 -62 -22 -10 -8 -13 -58
-13 -204 0 -181 1 -194 19 -204 11 -5 29 -11 40 -13 11 -2 24 -6 27 -10 4 -4
14 -7 23 -7 21 0 110 -47 139 -74 37 -33 54 -84 54 -161 1 -69 -15 -126 -43
-155 -8 -8 -22 -27 -31 -42 -11 -16 -51 -42 -105 -68 -48 -24 -95 -46 -103
-50 -12 -6 -15 -40 -18 -199 l-2 -191 27 -11 c35 -14 296 -7 315 8 7 5 28 13
46 16 40 8 146 60 190 93 17 14 32 34 32 45 0 11 -4 18 -9 15 -5 -4 -17 -3
-25 0 -12 5 12 26 87 75 62 40 128 94 162 131 66 72 141 182 150 221 4 14 13
31 21 38 8 6 14 19 15 28 3 50 15 -46 14 -109 -1 -65 -7 -106 -29 -206 -7 -36
-57 -134 -67 -134 -5 0 -9 -7 -9 -17 0 -18 -47 -86 -97 -141 -18 -19 -33 -39
-33 -44 0 -4 -5 -8 -11 -8 -6 0 -20 -11 -31 -25 -22 -28 -38 -32 -38 -10 0 22
-17 18 -67 -15 -24 -16 -47 -30 -50 -30 -4 0 -14 -6 -22 -14 -26 -23 -320
-166 -344 -166 -10 -1 -102 -45 -234 -113 -13 -7 -23 -17 -23 -24 0 -6 -13
-16 -29 -21 -27 -10 -31 -8 -52 21 -22 31 -93 71 -209 118 -30 12 -83 35 -118
50 -34 16 -68 29 -75 29 -7 0 -18 5 -24 11 -27 27 -33 -4 -33 -168 0 -157 -1
-168 -22 -190 -27 -28 -40 -29 -64 -2 -17 19 -20 43 -24 231 l-5 210 -40 24
c-22 13 -50 29 -62 36 -13 6 -23 15 -23 21 0 5 -15 6 -35 3 -31 -6 -38 -3 -82
41 -60 60 -103 114 -103 131 0 6 -4 12 -10 12 -5 0 -12 11 -16 25 -3 14 -10
25 -16 25 -5 0 -6 5 -3 10 4 6 -2 18 -13 28 -10 9 -26 37 -35 62 -24 65 -45
225 -37 278 4 25 5 53 2 64 -9 34 7 18 27 -28 65 -147 199 -300 344 -394 85
-55 87 -57 62 -68 -14 -6 -25 -17 -25 -24 0 -13 62 -58 79 -58 5 0 23 24 39
53 80 138 258 271 432 322 92 27 85 10 88 218 2 185 2 186 -20 198 -13 7 -32
13 -43 15 -34 3 -170 43 -216 63 -54 23 -104 68 -118 105 -6 15 -11 56 -11 92
0 108 41 178 143 244 34 22 80 45 102 51 22 5 49 14 60 19 11 5 36 12 55 16
19 3 38 12 42 18 10 15 10 218 0 233 -10 16 -199 20 -215 4 -13 -13 -77 -15
-77 -2 0 12 -26 22 -71 27 -27 3 -40 -1 -54 -16 -23 -26 -69 -26 -95 0 -15 15
-33 20 -74 20 -81 0 -103 12 -116 61 -13 49 -5 112 17 131 10 8 36 12 72 10
45 -3 62 1 83 17 27 22 92 29 103 11 10 -17 112 -12 119 5 4 10 20 15 50 15
30 0 46 -5 50 -15 4 -12 22 -15 78 -14 111 2 132 9 136 43 5 45 -6 76 -28 76
-10 0 -22 5 -25 10 -3 6 -13 10 -21 10 -22 0 -94 57 -140 112 -55 65 -77 135
-71 230 5 100 18 139 60 196 39 52 134 121 175 127 20 3 44 10 52 15 13 9 99
7 155 -3z"/>
<path d="M7024 13651 c-38 -23 -58 -70 -50 -113 7 -37 49 -88 71 -88 8 0 15
-9 15 -20 0 -19 -6 -21 -52 -20 -29 1 -68 0 -85 -3 -18 -2 -44 -4 -57 -5 -43
-3 -44 -62 -2 -62 12 0 27 -5 34 -12 8 -8 15 -8 24 -1 7 6 40 8 76 5 l63 -4
-3 -40 c-3 -37 -6 -41 -43 -54 -75 -25 -110 -99 -66 -138 11 -10 39 -23 63
-30 l43 -13 3 -67 c2 -55 0 -66 -13 -66 -29 0 -91 -38 -129 -80 -34 -38 -62
-47 -50 -16 3 8 -3 17 -13 20 -24 8 -87 72 -108 111 l-17 30 6 -59 c6 -71 57
-156 96 -161 3 0 15 -6 28 -13 19 -11 22 -20 22 -82 0 -54 3 -70 14 -70 18 0
24 23 22 73 -2 21 0 40 4 42 3 2 41 -14 84 -35 78 -39 79 -39 105 -21 14 9 51
28 81 40 30 13 71 33 90 44 19 12 41 22 49 22 33 0 101 132 101 195 -1 24 -1
24 -15 5 -55 -77 -71 -95 -100 -111 -18 -10 -31 -23 -28 -30 8 -22 -70 -54
-132 -54 l-55 0 0 64 c0 61 1 64 30 76 87 36 86 146 -1 165 -29 6 -29 8 -29
76 0 59 3 69 18 69 62 1 192 105 192 155 0 14 -4 25 -9 25 -4 0 -16 20 -26 45
-9 25 -30 56 -46 67 -16 12 -29 30 -29 40 0 37 -29 87 -59 102 -40 21 -79 20
-117 -3z m108 -34 c36 -29 43 -77 12 -77 -14 0 -14 -3 -4 -15 11 -13 10 -18
-6 -30 -26 -20 -34 -18 -34 5 0 13 -7 20 -20 20 -13 0 -20 -7 -20 -20 0 -30
-18 -24 -40 13 -25 39 -19 73 16 105 32 28 62 28 96 -1z m80 -134 c20 -23 41
-64 36 -69 -3 -2 -15 -4 -29 -4 -13 1 -45 0 -71 0 -37 -1 -48 3 -48 15 0 8 10
19 23 24 12 5 31 18 41 30 23 26 29 26 48 4z m18 -168 c0 -13 -60 -46 -107
-60 -21 -6 -23 -3 -23 36 l0 42 39 -6 c21 -2 44 -1 51 3 17 10 40 2 40 -15z
m-170 -165 c0 -65 -6 -70 -54 -48 -61 27 -35 105 37 107 14 1 17 -8 17 -59z
m86 -114 c28 -34 18 -77 -22 -95 -24 -11 -24 -10 -24 50 0 58 1 60 23 53 12
-3 22 -7 23 -8z m-86 -206 l0 -60 -64 0 c-36 0 -68 5 -72 11 -12 20 91 108
129 109 4 0 7 -27 7 -60z"/>
<path d="M7009 12167 c-73 -27 -159 -113 -159 -158 0 -10 -4 -21 -10 -24 -16
-10 -12 -85 7 -135 24 -63 57 -105 109 -135 54 -32 68 -26 60 27 -10 61 6 80
62 76 l47 -3 5 -60 c4 -50 8 -60 25 -63 25 -3 100 44 116 75 11 20 9 26 -11
48 -20 21 -22 28 -12 50 6 14 21 26 32 26 55 4 63 14 55 67 -13 85 -68 162
-140 196 -52 24 -140 30 -186 13z"/>
<path d="M7387 11739 c-9 -6 -17 -16 -17 -23 0 -13 -73 -86 -86 -86 -4 0 -15
-6 -23 -13 -17 -15 -60 -32 -103 -41 -26 -6 -28 -10 -28 -51 0 -40 3 -47 26
-55 40 -16 130 -12 144 5 17 21 86 20 94 -1 5 -13 17 -15 64 -11 101 9 137 20
134 42 -11 68 -40 120 -104 185 -16 15 -28 33 -28 39 0 7 -6 11 -12 8 -7 -2
-20 -1 -28 4 -9 4 -23 3 -33 -2z"/>
<path d="M7433 11230 c-18 -4 -40 -13 -48 -20 -10 -8 -26 -10 -47 -5 -18 4
-71 8 -118 9 l-85 1 0 -115 0 -114 32 -7 c18 -3 30 -2 27 2 -3 5 3 9 13 9 65
1 253 93 313 152 40 40 44 58 12 58 -10 0 -23 9 -30 20 -13 21 -19 22 -69 10z"/>
<path d="M6920 10839 c-36 -11 -72 -24 -80 -30 -8 -5 -26 -17 -40 -26 -79 -50
-78 -221 2 -261 54 -27 99 -40 157 -47 l62 -7 -3 193 c-3 163 -5 194 -18 196
-8 1 -44 -7 -80 -18z"/>
<path d="M7136 10324 c-10 -26 -7 -332 4 -339 15 -9 142 57 163 86 46 63 40
160 -14 210 -25 23 -108 59 -137 59 -6 0 -13 -7 -16 -16z"/>
<path d="M6905 9812 c-33 -15 -79 -40 -102 -55 -24 -15 -45 -27 -48 -27 -6 0
-113 -107 -142 -143 -13 -15 -24 -41 -25 -58 -5 -49 42 -61 245 -63 139 -1
169 2 178 14 5 9 8 85 7 185 l-3 170 -25 2 c-14 1 -52 -10 -85 -25z"/>
</g>
</svg>
