<?xml version="1.0" standalone="no"?>
<!DOCTYPE svg PUBLIC "-//W3C//DTD SVG 20010904//EN"
 "http://www.w3.org/TR/2001/REC-SVG-20010904/DTD/svg10.dtd">
<svg version="1.0" xmlns="http://www.w3.org/2000/svg"
 width="1417.000000pt" height="1417.000000pt" viewBox="0 0 1417.000000 1417.000000"
 preserveAspectRatio="xMidYMid meet">

<g transform="translate(0.000000,1417.000000) scale(0.100000,-0.100000)"
fill="#000000" stroke="none">
<path d="M0 7085 l0 -7085 7085 0 7085 0 0 7085 0 7085 -7085 0 -7085 0 0
-7085z m7285 6691 c225 -76 397 -263 451 -491 25 -110 15 -276 -24 -381 -38
-103 -89 -184 -163 -256 -343 -335 -926 -213 -1102 232 -75 190 -59 417 42
593 88 155 263 281 445 323 96 22 253 13 351 -20z m-52 -1702 c26 -3 47 -10
47 -15 0 -5 9 -9 20 -9 11 0 39 -12 62 -27 22 -16 48 -32 56 -38 68 -44 172
-185 172 -234 0 -9 4 -21 8 -26 23 -26 41 -195 27 -242 -6 -19 2 -27 56 -60
75 -45 191 -151 227 -208 46 -73 82 -147 82 -170 0 -13 4 -26 9 -29 5 -4 17
-42 27 -86 15 -73 19 -80 41 -80 38 0 83 -51 85 -97 8 -152 -15 -198 -104
-217 -16 -4 -28 -13 -28 -22 0 -49 -118 -208 -147 -197 -14 5 -45 -26 -37 -38
5 -8 -68 -68 -124 -102 -52 -31 -145 -75 -247 -117 -11 -5 -45 -14 -75 -21
-30 -7 -64 -19 -75 -26 -11 -7 -38 -13 -60 -13 -22 0 -51 -7 -63 -16 -22 -15
-22 -17 -22 -309 0 -331 -6 -307 79 -321 23 -4 44 -11 47 -15 3 -5 14 -9 25
-9 10 0 27 -4 37 -9 9 -5 43 -22 76 -37 76 -37 130 -89 157 -150 28 -61 32
-213 9 -284 -16 -52 -58 -120 -73 -120 -6 0 -7 -3 -4 -6 10 -11 -87 -98 -135
-121 -23 -11 -70 -33 -103 -48 -33 -15 -71 -32 -85 -39 l-25 -12 -3 -286 -2
-286 63 -17 c79 -21 287 -16 387 10 36 9 80 19 98 22 18 3 35 9 38 14 3 5 12
9 21 9 34 0 213 98 279 154 1 1 4 14 8 29 6 24 4 28 -11 26 -10 -1 -26 1 -35
6 -20 8 -24 25 -7 25 6 0 25 11 43 25 18 14 36 25 40 25 9 0 164 108 214 149
94 78 216 239 278 366 24 50 52 103 63 118 l18 29 8 -48 c8 -54 8 -232 0 -245
-3 -4 -10 -36 -15 -71 -16 -107 -22 -129 -37 -135 -8 -3 -10 -8 -5 -12 13 -8
-59 -161 -75 -161 -7 0 -13 -11 -13 -24 0 -22 -63 -116 -78 -116 -4 0 -16 -19
-27 -41 -10 -23 -35 -53 -53 -67 -19 -14 -38 -36 -43 -49 -5 -14 -17 -23 -29
-23 -12 0 -20 -7 -20 -17 0 -10 -12 -26 -25 -36 -25 -18 -25 -18 -35 7 -12 33
-33 33 -68 1 -15 -14 -31 -25 -37 -25 -5 0 -21 -9 -35 -20 -14 -11 -31 -20
-38 -20 -7 0 -23 -9 -35 -20 -28 -26 -105 -70 -123 -70 -8 0 -14 -4 -14 -10 0
-5 -8 -10 -18 -10 -10 0 -22 -4 -28 -9 -15 -14 -144 -81 -157 -81 -7 0 -43
-16 -81 -35 -39 -19 -76 -35 -83 -35 -7 0 -42 -13 -78 -30 -36 -16 -71 -30
-78 -30 -7 0 -17 -4 -23 -9 -9 -8 -80 -48 -161 -91 -23 -12 -40 -27 -37 -34 4
-11 -58 -46 -82 -46 -12 0 -68 61 -69 75 0 5 -9 11 -19 13 -10 2 -52 24 -93
48 -41 24 -81 44 -88 44 -8 0 -17 5 -20 10 -3 6 -13 10 -21 10 -8 0 -34 9 -56
20 -23 11 -46 20 -51 20 -10 0 -94 37 -160 71 -22 10 -45 19 -52 19 -7 0 -27
8 -44 17 -16 10 -33 14 -37 10 -4 -4 -9 -120 -11 -259 l-4 -253 -30 -27 c-36
-35 -62 -35 -97 -3 l-27 25 -3 301 c-2 253 -5 305 -19 325 -8 13 -22 24 -29
24 -8 0 -14 5 -14 10 0 6 -8 10 -18 10 -11 0 -27 9 -36 19 -10 11 -28 21 -40
23 -11 2 -25 13 -31 26 -7 15 -18 22 -37 22 -16 0 -28 -4 -28 -10 0 -19 -41
-10 -73 17 -56 48 -137 136 -135 147 2 6 -12 25 -30 42 -17 17 -32 38 -32 46
0 9 -11 23 -25 32 -19 12 -24 23 -20 37 4 12 1 21 -10 25 -10 4 -13 13 -10 25
4 12 1 19 -7 19 -27 1 -62 79 -97 215 -11 43 -25 179 -24 235 1 107 8 190 15
190 4 0 8 -11 8 -25 0 -14 7 -28 15 -31 8 -4 15 -15 15 -25 0 -19 32 -83 56
-110 8 -8 14 -19 14 -23 0 -4 14 -27 30 -51 17 -24 30 -47 30 -52 0 -5 55 -63
123 -130 121 -120 214 -195 292 -232 22 -11 48 -28 57 -38 16 -17 15 -20 -12
-38 -17 -11 -30 -26 -30 -33 0 -16 39 -51 56 -52 6 0 17 -7 24 -15 24 -29 49
-17 76 37 37 73 59 103 139 186 70 73 178 160 238 192 18 9 50 26 72 38 53 29
136 65 155 68 19 3 79 24 102 35 10 5 29 9 43 9 14 0 25 6 26 13 0 6 0 136 0
287 0 304 1 300 -65 300 -17 1 -42 7 -56 15 -14 8 -40 14 -58 15 -18 0 -40 4
-50 9 -9 5 -39 14 -66 20 -76 18 -199 82 -213 111 -7 14 -13 22 -13 17 0 -22
-48 28 -58 61 -44 147 -15 307 73 410 51 59 211 162 253 162 10 0 27 7 38 15
10 8 29 15 41 15 12 0 24 4 27 9 3 5 23 11 43 14 21 3 53 9 71 13 l32 6 1 102
c2 207 2 267 -3 272 -3 3 -70 6 -148 7 -122 2 -146 0 -165 -15 -30 -23 -105
-21 -125 4 -9 11 -40 23 -79 29 -64 12 -65 11 -88 -15 -17 -20 -35 -28 -73
-33 -48 -6 -53 -4 -78 25 -26 30 -31 32 -136 39 -94 7 -110 11 -120 28 -6 11
-14 22 -17 25 -3 3 -11 31 -19 63 -10 44 -11 63 -2 82 7 14 12 34 12 44 0 10
9 26 20 36 17 16 35 18 118 16 97 -2 97 -2 126 28 24 25 38 31 73 31 23 0 60
-9 81 -20 52 -27 147 -22 169 9 11 17 25 21 73 21 50 0 61 -3 71 -21 11 -21
16 -21 143 -17 72 2 140 9 151 15 15 9 19 23 20 69 2 66 -13 94 -51 94 -13 0
-26 5 -29 10 -3 6 -14 10 -24 10 -25 0 -120 61 -120 78 -1 6 -8 12 -16 12 -9
0 -19 8 -22 18 -4 9 -26 36 -49 60 -75 76 -105 160 -111 310 -3 79 0 115 13
155 21 64 53 136 74 162 35 44 106 115 116 115 6 0 18 7 25 16 19 24 135 74
169 74 16 0 32 5 36 11 6 11 119 7 227 -7z m-167 -4811 c-10 -10 -19 5 -10 18
6 11 8 11 12 0 2 -7 1 -15 -2 -18z m159 -880 l110 -303 344 -2 345 -3 -264
-198 c-146 -109 -266 -202 -268 -207 -3 -8 64 -200 184 -530 29 -79 51 -146
49 -148 -3 -3 -372 247 -592 401 l-41 30 -99 -69 c-54 -37 -192 -135 -307
-217 -115 -81 -210 -146 -213 -144 -2 2 42 132 98 288 56 156 109 307 119 335
l18 52 -146 103 c-81 57 -209 148 -286 203 l-138 101 355 3 355 2 42 118 c107
294 193 528 197 536 7 11 8 8 138 -351z m-2650 -1870 l109 -303 345 -2 345 -3
-267 -200 c-147 -110 -267 -204 -267 -209 0 -8 54 -161 181 -511 32 -87 56
-161 54 -163 -2 -2 -142 92 -312 208 -169 117 -313 214 -318 216 -6 2 -56 -28
-112 -68 -385 -275 -506 -359 -509 -355 -3 2 48 150 111 328 63 178 116 329
118 336 1 6 -126 103 -283 215 l-285 203 357 3 356 2 16 43 c9 23 61 167 116
321 55 153 103 283 107 288 7 13 8 11 138 -349z m5260 0 l109 -303 345 -2 345
-3 -267 -200 c-147 -110 -267 -204 -267 -209 0 -8 41 -124 181 -511 32 -88 56
-161 54 -163 -3 -3 -375 249 -591 401 l-42 29 -58 -40 c-33 -21 -171 -119
-308 -216 -137 -97 -251 -175 -253 -173 -3 3 149 439 217 623 l19 51 -182 129
c-100 70 -228 162 -285 204 l-104 75 355 3 c326 2 356 4 362 20 4 9 40 109 80
222 103 289 145 402 152 413 7 12 10 7 138 -350z"/>
<path d="M7024 13651 c-38 -23 -58 -70 -50 -113 7 -37 49 -88 71 -88 8 0 15
-9 15 -20 0 -19 -6 -21 -52 -20 -29 1 -68 0 -85 -3 -18 -2 -44 -4 -57 -5 -43
-3 -44 -62 -2 -62 12 0 27 -5 34 -12 8 -8 15 -8 24 -1 7 6 40 8 76 5 l63 -4
-3 -40 c-3 -37 -6 -41 -43 -54 -75 -25 -110 -99 -66 -138 11 -10 39 -23 63
-30 l43 -13 3 -67 c2 -55 0 -66 -13 -66 -29 0 -91 -38 -129 -80 -34 -38 -62
-47 -50 -16 3 8 -3 17 -13 20 -24 8 -87 72 -108 111 l-17 30 6 -59 c6 -71 57
-156 96 -161 3 0 15 -6 28 -13 19 -11 22 -20 22 -82 0 -54 3 -70 14 -70 18 0
24 23 22 73 -2 21 0 40 4 42 3 2 41 -14 84 -35 78 -39 79 -39 105 -21 14 9 51
28 81 40 30 13 71 33 90 44 19 12 41 22 49 22 33 0 101 132 101 195 -1 24 -1
24 -15 5 -55 -77 -71 -95 -100 -111 -18 -10 -31 -23 -28 -30 8 -22 -70 -54
-132 -54 l-55 0 0 64 c0 61 1 64 30 76 87 36 86 146 -1 165 -29 6 -29 8 -29
76 0 59 3 69 18 69 62 1 192 105 192 155 0 14 -4 25 -9 25 -4 0 -16 20 -26 45
-9 25 -30 56 -46 67 -16 12 -29 30 -29 40 0 37 -29 87 -59 102 -40 21 -79 20
-117 -3z m108 -34 c36 -29 43 -77 12 -77 -14 0 -14 -3 -4 -15 11 -13 10 -18
-6 -30 -26 -20 -34 -18 -34 5 0 13 -7 20 -20 20 -13 0 -20 -7 -20 -20 0 -30
-18 -24 -40 13 -25 39 -19 73 16 105 32 28 62 28 96 -1z m80 -134 c20 -23 41
-64 36 -69 -3 -2 -15 -4 -29 -4 -13 1 -45 0 -71 0 -37 -1 -48 3 -48 15 0 8 10
19 23 24 12 5 31 18 41 30 23 26 29 26 48 4z m18 -168 c0 -13 -60 -46 -107
-60 -21 -6 -23 -3 -23 36 l0 42 39 -6 c21 -2 44 -1 51 3 17 10 40 2 40 -15z
m-170 -165 c0 -65 -6 -70 -54 -48 -61 27 -35 105 37 107 14 1 17 -8 17 -59z
m86 -114 c28 -34 18 -77 -22 -95 -24 -11 -24 -10 -24 50 0 58 1 60 23 53 12
-3 22 -7 23 -8z m-86 -206 l0 -60 -64 0 c-36 0 -68 5 -72 11 -12 20 91 108
129 109 4 0 7 -27 7 -60z"/>
<path d="M7020 11921 c-92 -19 -199 -99 -243 -181 -57 -107 -70 -191 -42 -271
24 -67 39 -99 47 -99 5 0 8 -5 8 -11 0 -19 62 -87 91 -99 28 -12 39 -30 18
-30 -5 0 -7 -5 -3 -11 5 -8 8 -8 14 0 5 9 14 9 35 1 47 -18 53 -9 47 72 -5 91
9 110 87 110 84 -1 91 -9 91 -108 0 -100 7 -107 76 -75 55 26 144 107 144 130
0 10 -13 27 -30 39 -59 44 -21 122 59 122 35 0 41 3 47 26 18 71 -25 201 -86
259 -16 16 -30 33 -30 38 0 12 -26 37 -39 37 -6 0 -19 4 -29 9 -79 43 -182 60
-262 42z"/>
<path d="M7537 11276 c-10 -8 -17 -18 -15 -22 7 -23 -38 -69 -147 -151 -5 -5
-23 -14 -40 -22 -16 -7 -38 -17 -47 -22 -10 -5 -25 -9 -35 -9 -9 0 -32 -5 -50
-12 -33 -12 -33 -13 -33 -74 0 -83 8 -88 135 -92 98 -4 103 -3 110 17 5 18 14
21 64 21 49 0 61 -4 79 -25 19 -22 30 -25 84 -25 42 0 67 5 79 16 9 8 42 18
73 21 44 5 56 9 56 23 0 28 -32 123 -48 142 -8 9 -11 22 -7 27 3 6 -1 14 -10
17 -9 4 -29 25 -45 48 -15 23 -44 53 -64 67 -26 18 -34 29 -30 43 5 16 2 18
-19 12 -14 -3 -29 -2 -32 4 -9 14 -37 12 -58 -4z"/>
<path d="M7619 10531 c-20 -4 -49 -17 -64 -29 -34 -27 -82 -28 -138 -4 -35 16
-58 18 -142 13 l-100 -6 -3 -169 c-2 -114 1 -172 8 -176 38 -24 339 79 465
159 96 60 186 174 125 158 -15 -4 -27 4 -46 29 -27 35 -38 38 -105 25z"/>
<path d="M6630 9999 c0 -5 5 -7 10 -4 6 3 10 8 10 11 0 2 -4 4 -10 4 -5 0 -10
-5 -10 -11z"/>
<path d="M6850 9940 c-47 -16 -91 -28 -97 -25 -7 2 -18 -4 -25 -14 -7 -10 -31
-28 -53 -40 -22 -12 -40 -24 -40 -29 -1 -4 -11 -27 -24 -52 -17 -35 -23 -62
-23 -120 0 -46 4 -76 11 -78 6 -2 11 -10 11 -17 0 -34 115 -125 158 -125 10 0
22 -4 28 -9 13 -11 183 -35 192 -26 4 4 7 131 7 283 l0 277 -30 2 c-16 1 -68
-11 -115 -27z"/>
<path d="M7184 9196 c-12 -9 -14 -50 -12 -261 3 -242 4 -249 23 -249 11 0 34
7 50 14 17 7 44 19 60 26 47 20 115 73 115 89 0 8 4 15 8 15 34 0 52 173 24
224 -22 41 -73 96 -88 96 -6 0 -17 7 -24 15 -7 8 -25 15 -41 15 -15 0 -30 4
-33 9 -9 14 -65 19 -82 7z"/>
<path d="M6920 8463 c-21 -7 -102 -43 -122 -54 -10 -5 -23 -9 -29 -9 -7 0 -27
-11 -45 -25 -18 -14 -36 -25 -41 -25 -4 0 -19 -9 -33 -20 -14 -11 -33 -20 -42
-20 -10 0 -18 -6 -18 -13 0 -7 -20 -27 -44 -44 -25 -18 -71 -66 -103 -107 -32
-41 -64 -75 -71 -76 -8 0 -10 -8 -6 -24 3 -13 1 -27 -5 -30 -6 -4 -11 -18 -11
-31 0 -20 6 -25 38 -31 20 -4 45 -11 55 -16 10 -5 37 -9 60 -9 23 -1 61 -7 85
-15 55 -18 225 -17 322 2 41 8 76 17 78 19 8 7 14 409 7 470 -6 62 -8 65 -33
64 -15 0 -34 -3 -42 -6z"/>
<path d="M6545 7910 c3 -5 8 -10 11 -10 2 0 4 5 4 10 0 6 -5 10 -11 10 -5 0
-7 -4 -4 -10z"/>
</g>
</svg>
